<svg width="800" height="250" viewBox="0 0 800 250" fill="none" xmlns="http://www.w3.org/2000/svg">
<path d="M18.4253 95.6926C15.0989 95.6926 13.4342 97.3543 13.4342 100.555V124.608H34.4208C45.2936 124.608 49.0056 120.385 49.0056 110.152C49.0056 100.041 45.2936 95.6926 34.4208 95.6926H18.4253ZM34.4208 83.0236C54.2538 83.0236 62.4428 92.7487 62.4428 110.152C62.4428 128.192 53.1001 137.277 34.4208 137.277H13.4342V160.308C13.4342 165.042 12.2805 166.193 7.54639 166.193H5.88164C1.14755 166.193 0 165.042 0 160.308V97.6114C0 87.3751 4.3485 83.0236 14.5878 83.0236H34.4208Z" fill="white"/>
<path d="M229.894 129.513V148.578C229.894 151.776 231.556 153.441 234.882 153.441H267.256C271.864 153.441 273.012 154.594 273.012 159.2V160.351C273.012 164.959 271.864 166.11 267.256 166.11H231.045C220.806 166.11 216.457 161.758 216.457 151.522V97.5254C216.457 87.2891 220.806 82.9376 231.045 82.9376H267.256C271.864 82.9376 273.012 84.0912 273.012 88.6968V89.8505C273.012 94.456 271.864 95.6066 267.256 95.6066H234.882C231.556 95.6066 229.894 97.2714 229.894 100.469V116.893H262.139C266.742 116.893 267.895 118.047 267.895 122.652V123.757C267.895 128.363 266.742 129.513 262.139 129.513H229.894Z" fill="white"/>
<path d="M282.649 88.8555C282.649 84.1215 283.8 82.9677 288.534 82.9677H290.199C294.933 82.9677 296.087 84.1215 296.087 88.8555V148.611C296.087 151.809 297.751 153.474 301.075 153.474H318.662C323.261 153.474 324.415 154.625 324.415 159.23V160.384C324.415 164.989 323.261 166.14 318.662 166.14H297.24C287.001 166.14 282.649 161.792 282.649 151.552V88.8555Z" fill="white"/>
<path d="M334.116 88.777C334.116 84.0429 335.264 82.8892 340.001 82.8892H341.663C346.4 82.8892 347.55 84.0429 347.55 88.777V148.53C347.55 151.728 349.215 153.392 352.541 153.392H370.125C374.728 153.392 375.878 154.546 375.878 159.152V160.302C375.878 164.911 374.728 166.062 370.125 166.062H348.704C338.465 166.062 334.116 161.71 334.116 151.474V88.777Z" fill="white"/>
<path d="M521.848 86.724C521.848 84.539 520.079 82.7701 517.894 82.7701H512.817C510.635 82.7701 508.863 84.539 508.863 86.724V134.747L508.839 134.741V149.154C508.839 150.584 507.655 151.746 506.198 151.746C505.017 151.746 504.05 150.969 503.716 149.913L493.205 110.688L493.177 110.694L489.098 95.5219C487.485 88.2908 481.46 82.7701 473.932 82.7701C465.397 82.7701 458.475 89.8208 458.475 98.5178C458.475 98.5331 458.481 98.5515 458.481 98.5699H458.45V162.062C458.45 164.247 460.219 166.019 462.404 166.019H467.481C469.666 166.019 471.435 164.247 471.435 162.062V114.039L471.462 114.045V99.6317C471.462 98.1996 472.643 97.0398 474.1 97.0398C475.284 97.0398 476.251 97.8201 476.585 98.8728L476.588 98.8758L487.097 138.098L487.121 138.092L491.2 153.264C492.816 160.498 498.838 166.019 506.366 166.019C514.901 166.019 521.823 158.965 521.823 150.271C521.823 150.253 521.817 150.235 521.817 150.216H521.848V86.724Z" fill="white"/>
<path d="M435.126 115.566C435.126 108.017 433.718 102.643 431.031 99.4452C428.345 96.1218 422.842 94.4571 414.782 94.4571C406.721 94.4571 401.219 96.1218 398.532 99.4452C395.842 102.643 394.435 108.017 394.435 115.566V133.866C394.435 141.287 395.842 146.661 398.532 149.987C401.219 153.313 406.721 154.978 414.782 154.978C422.842 154.978 428.345 153.313 431.031 149.987C433.718 146.661 435.126 141.287 435.126 133.866V115.566ZM388.296 157.604C383.305 151.844 380.872 144.87 380.872 133.866V116.897C380.872 105.893 382.754 97.0215 387.745 91.2684C392.733 85.5092 401.562 82.5652 414.231 82.5652C426.9 82.5652 435.726 85.5092 440.717 91.2684C445.705 97.0215 448.692 105.893 448.692 116.897V133.866C448.692 144.87 446.13 151.844 441.142 157.604C436.151 163.363 427.451 166.178 414.782 166.178C402.113 166.178 393.284 163.363 388.296 157.604Z" fill="white"/>
<path d="M425.703 70.8677H403.859C402.051 70.8677 400.582 69.3987 400.582 67.5871V65.0901C400.582 63.2815 402.051 61.8095 403.859 61.8095H425.703C427.515 61.8095 428.98 63.2815 428.98 65.0901V67.5871C428.98 69.3987 427.515 70.8677 425.703 70.8677Z" fill="white"/>
<path d="M158.843 129.489V148.683C158.843 151.881 160.508 153.545 163.834 153.545H176.118C189.041 153.545 193.136 150.473 193.136 141.776C193.136 133.584 189.298 129.489 178.548 129.489H158.843ZM163.834 95.7111C160.508 95.7111 158.843 97.3727 158.843 100.574V117.845H176.886C186.994 117.845 190.574 113.751 190.574 106.587C190.574 99.4201 186.994 95.7111 176.886 95.7111H163.834ZM176.886 83.042C195.183 83.042 204.268 90.466 204.268 105.179C204.268 114.519 201.071 119.764 192.367 122.836V123.348C203.246 126.802 206.827 132.819 206.827 142.669C206.827 158.408 196.848 166.214 176.886 166.214H159.997C149.758 166.214 145.409 161.863 145.409 151.627V97.6299C145.409 87.3936 149.758 83.042 159.997 83.042H176.886Z" fill="white"/>
<path d="M84.3568 130.923H113.915L106.366 104.753C104.318 97.2031 103.296 95.5414 99.2017 95.5414C95.1072 95.5414 93.9565 97.2031 91.9093 104.753L84.3568 130.923ZM135.413 160.478C136.566 164.958 135.798 166.109 131.064 166.109H129.271C124.537 166.109 123.258 164.958 121.85 160.478L117.113 143.078H81.1589L76.4248 160.478C75.0141 164.958 73.738 166.109 69.004 166.109H67.2107C62.4797 166.109 61.7115 164.958 62.8621 160.478L78.6006 104.394C80.9019 96.0769 83.3347 90.4462 85.893 87.5054C88.5829 84.436 92.9314 82.8998 99.2017 82.8998C105.469 82.8998 109.82 84.436 112.379 87.5054C114.94 90.4462 117.37 96.0769 119.674 104.394L135.413 160.478Z" fill="white"/>
<path d="M722.11 160.213C722.493 164.865 721.348 166.012 716.696 166.012H714.808C710.139 166.012 709.018 164.865 708.633 160.213L704.609 102.036C704.226 96.4975 702.972 95.2397 700.205 95.2397C697.809 95.2397 696.545 96.4975 695.786 102.036L689.002 152.658C687.732 162.23 684.84 166.012 675.011 166.012C666.953 166.012 662.415 163.108 661.035 152.658L654.116 102.036C653.357 96.4975 652.099 95.2397 649.584 95.2397C647.072 95.2397 645.682 96.4975 645.297 102.036L641.392 160.213C641.144 164.865 639.886 166.012 635.232 166.012H633.331C628.677 166.012 627.554 164.865 627.921 160.213L632.193 101.902C633.209 88.6848 638.371 83.406 649.446 83.406C659.786 83.406 664.692 88.5624 666.326 101.902L672.254 150.519C672.746 154.292 673.132 155.051 675.011 155.051C676.783 155.051 677.156 154.292 677.664 150.519L683.579 101.902C685.22 88.5624 690.272 83.406 700.45 83.406C711.534 83.406 716.696 88.5624 717.7 101.902L722.11 160.213Z" fill="white"/>
<path d="M558.46 141.174C551.642 128.03 554.463 115.486 561.379 104.626C561.254 101.165 561.41 97.7191 561.817 94.3101C551.865 107.845 547.464 123.871 553.94 142.11C555.76 147.202 558.401 151.918 561.651 156.272C561.89 153.65 562.291 151.003 562.836 148.347C561.211 146.064 559.742 143.674 558.46 141.174Z" fill="#EF3031"/>
<path d="M682.739 202.993C681.136 203.4 679.536 203.773 677.944 204.14C672.151 205.453 666.331 206.518 660.495 207.326C662.594 207.978 664.685 208.59 666.781 209.171C670.474 210.184 674.193 211.115 677.944 211.919C679.419 211.61 680.894 211.268 682.372 210.903C686.736 209.863 691.075 208.654 695.369 207.326C700.394 205.775 705.348 204.049 710.232 202.151C701.134 203.253 691.92 203.495 682.739 202.993Z" fill="#3DBD9B"/>
<path d="M612.729 67.6883C613.231 66.4765 613.761 65.2769 614.296 64.0865C610.817 65.6625 607.401 67.3517 604.035 69.1389C602.355 73.2272 600.84 77.3676 599.451 81.5601C603.653 76.7587 608.081 72.1195 612.729 67.6883Z" fill="#F57533"/>
<path d="M744.615 193.465C747.859 192.177 751.075 190.729 754.2 189.132C756.106 183.664 757.618 178.125 758.796 172.528C755.598 175.441 752.275 178.223 748.811 180.836C747.642 185.114 746.24 189.337 744.615 193.465Z" fill="#F68522"/>
<path d="M608.716 58.6099C612.223 56.9176 615.699 55.363 619.114 53.9492C623.35 45.6225 628.35 37.2009 634.271 29.6086C632.252 29.7218 630.247 29.8656 628.234 30.0951C627.3 30.2053 626.376 30.3491 625.446 30.493C620.892 36.7204 616.905 43.2753 613.413 49.5364C611.758 52.5078 610.2 55.5375 608.716 58.6099Z" fill="#F68522"/>
<path d="M601.125 176.091C597.701 173.187 594.399 170.154 591.274 166.947C591.73 169.554 592.238 172.149 592.835 174.726C595.898 176.587 599.023 178.328 602.126 179.959C601.786 178.671 601.443 177.379 601.125 176.091Z" fill="#F68522"/>
<path d="M606.157 85.3945C602.014 89.9847 598.051 94.7647 594.336 99.7314C592.72 106.678 591.441 113.698 590.486 120.733C589.03 131.6 588.708 142.745 589.593 153.817C590.976 155.423 592.377 156.99 593.834 158.511C595.385 160.176 597.01 161.776 598.66 163.358C594.844 137.396 598.115 110.488 606.157 85.3945Z" fill="#F68522"/>
<path d="M724.369 41.8113C727.716 42.5304 731.04 43.3873 734.339 44.3818C731.34 39.3295 728.068 34.4119 724.509 29.8002C721.538 29.5584 718.548 29.436 715.583 29.4635C716.005 29.996 716.409 30.5163 716.825 31.0549C719.5 34.522 722.006 38.1177 724.369 41.8113Z" fill="#F57533"/>
<path d="M741.65 76.928C744.328 84.2571 746.602 91.7422 748.465 99.258C753.212 118.458 755.152 138.183 753.105 157.872C752.734 161.395 752.229 164.923 751.611 168.433C754.806 165.682 757.872 162.775 760.816 159.733C763.451 136.546 760.504 112.787 753.952 90.252C750.029 85.6219 745.91 81.1755 741.65 76.928Z" fill="#F68522"/>
<path d="M740.27 203.112C739.29 205.028 738.244 206.91 737.148 208.765C740.132 208.492 743.082 208.101 746.017 207.59C747.562 204.793 748.991 201.934 750.274 199.033C747.005 200.53 743.663 201.891 740.27 203.112Z" fill="#F68522"/>
<path d="M731.43 217.451C718.192 235.304 698.206 245.687 675.967 245.941C657.955 245.892 641.476 239.42 628.367 227.078C624.587 223.513 621.212 219.554 618.222 215.315C615.168 214.966 612.114 214.516 609.1 213.932C615.407 223.422 623.47 231.757 633.11 237.859C645.803 245.914 660.7 249.329 675.616 249.424H675.967C676.087 249.424 676.261 249.424 676.445 249.415C693.793 249.139 710.501 244.234 724.352 233.56C731.139 228.321 736.85 221.888 741.623 214.792C738.624 215.226 735.628 215.548 732.623 215.777C732.226 216.334 731.834 216.906 731.43 217.451Z" fill="#F68522"/>
<path d="M659.142 7.88293C678.333 -2.05344 696.232 8.46735 709.513 22.4615C712.463 22.3513 715.425 22.3514 718.378 22.4983C702.643 5.27567 682.369 -5.21155 658.206 3.36916C647.734 7.09645 638.896 14.3582 631.411 22.9849C634.404 22.636 637.412 22.4493 640.433 22.3973C645.962 16.537 652.156 11.4909 659.142 7.88293Z" fill="#F68522"/>
<path d="M600.106 186.9C598.545 186.024 596.976 185.115 595.372 184.188C597.765 191.927 600.831 199.422 604.65 206.527C607.613 207.213 610.627 207.761 613.669 208.186C610.26 202.271 607.447 195.988 605.168 189.586C603.478 188.72 601.786 187.836 600.106 186.9Z" fill="#F68522"/>
<path d="M734.386 59.7953C739.093 63.7857 743.609 68.0027 747.927 72.4062C745.623 66.5001 742.875 60.2819 739.686 54.0728C736.476 52.9466 733.205 51.9674 729.912 51.1013C731.485 53.9534 732.975 56.8453 734.386 59.7953Z" fill="#F68522"/>
<path d="M733.621 197.306C725.952 199.604 718.128 201.193 710.226 202.15C705.348 204.048 700.385 205.777 695.369 207.325C698.72 207.8 702.071 208.213 705.44 208.519C708.996 208.846 712.693 209.091 716.445 209.238C724.566 207.9 732.553 205.856 740.271 203.102C741.865 199.966 743.307 196.746 744.614 193.466C740.987 194.919 737.3 196.198 733.621 197.306Z" fill="#EF3031"/>
<path d="M614.286 64.0752C615.783 63.4081 617.276 62.7563 618.788 62.1228C624.911 56.7155 631.374 51.6968 638.131 47.1647C635.515 47.9512 632.917 48.8049 630.34 49.6862C626.75 50.9286 622.98 52.3455 619.115 53.9459C617.839 56.4492 616.646 58.9401 615.51 61.3852C615.091 62.2818 614.69 63.1786 614.286 64.0752Z" fill="#EF3031"/>
<path d="M701.785 46.6944C698.162 44.7053 694.471 42.8172 690.667 41.1188C688.807 40.2865 686.922 39.5 685.018 38.738C678.73 39.0532 672.447 39.7142 666.214 40.6812C665.877 40.8312 665.537 40.9658 665.197 41.1188C657.143 44.7237 649.502 49.0447 642.219 53.895C644.746 53.1636 647.28 52.4904 649.832 51.857C666.868 47.634 684.315 45.6571 701.785 46.6944Z" fill="#EF3031"/>
<path d="M800 124.346C800 124.218 800 124.058 799.982 123.878C799.813 113.134 797.873 102.634 793.883 92.9089C794.427 96.9025 794.645 100.96 794.479 105.033C794.443 105.86 794.339 106.68 794.281 107.494C795.682 112.913 796.45 118.556 796.515 124.346C796.493 132.281 795.214 139.916 792.76 147.098C793.415 150.045 793.895 152.989 794.192 155.921C798.155 146.055 799.936 135.378 800 124.692V124.346Z" fill="#EF3031"/>
<path d="M667.349 201.457C670.853 202.455 674.396 203.324 677.94 204.141C679.537 203.774 681.138 203.401 682.729 202.994C677.597 202.709 672.462 202.192 667.349 201.457Z" fill="#E8402D"/>
<path d="M754.203 189.132C753.67 190.638 753.12 192.146 752.538 193.643C751.831 195.454 751.081 197.248 750.273 199.032C752.81 197.875 755.307 196.66 757.74 195.326C770.051 188.612 780.906 179.089 788.443 167.209C788.761 166.707 789.073 166.193 789.361 165.682C789.306 162.753 789.012 159.785 788.529 156.823C785.652 162.233 782.035 167.307 777.65 171.955C770.997 179.024 762.9 184.673 754.203 189.132Z" fill="#EF3031"/>
<path d="M581.623 83.4968C588.643 78.0772 596.183 73.3218 604.035 69.1385C605.483 65.5765 607.047 62.0664 608.717 58.6084C593.753 65.8335 578.446 75.5832 567.341 87.6311C566.787 90.9637 566.509 94.3451 566.469 97.748C570.964 92.405 576.28 87.5974 581.623 83.4968Z" fill="#EF3031"/>
<path d="M641.514 200.512C631.869 196.54 622.508 191.534 613.734 185.615C613.14 185.34 612.553 185.077 611.962 184.808C608.727 183.311 605.432 181.689 602.13 179.954C599.021 178.329 595.899 176.594 592.833 174.724C583.582 169.13 574.784 162.444 567.752 154.518C567.256 157.098 566.877 159.699 566.678 162.291C574.873 171.11 585.308 178.28 595.376 184.189C596.973 185.117 598.546 186.026 600.113 186.907C601.787 187.825 603.476 188.719 605.169 189.588C621.813 198.165 639.813 204.093 658.207 207.664C658.969 207.572 659.734 207.444 660.499 207.327C654.064 205.338 647.739 203.062 641.514 200.512Z" fill="#EF3031"/>
<path d="M740.271 203.112C743.664 201.891 747.006 200.529 750.274 199.033C751.082 197.258 751.826 195.449 752.539 193.641C753.117 192.147 753.671 190.639 754.191 189.139C751.076 190.724 747.857 192.178 744.616 193.466C743.306 196.756 741.865 199.966 740.271 203.112Z" fill="#F68522"/>
<path d="M615.511 61.3858C616.64 58.9408 617.843 56.4498 619.119 53.9466C615.701 55.3573 612.221 56.918 608.714 58.6041C607.037 62.0683 605.483 65.5874 604.035 69.1372C607.404 67.3501 610.82 65.6608 614.287 64.0818C614.691 63.1821 615.092 62.2886 615.511 61.3858Z" fill="#F68522"/>
<path d="M786.722 79.5732C785.893 78.3491 785.042 77.1526 784.13 75.9653C774.01 62.8494 759.493 53.7454 744.223 47.7781C740.954 46.502 737.661 45.3697 734.338 44.3812C731.039 43.3867 727.713 42.5329 724.368 41.8107C717.669 40.3449 710.91 39.4054 704.098 38.925C709.682 41.9362 715.111 45.287 720.341 48.9317C723.545 49.5376 726.74 50.266 729.913 51.1014C733.206 51.9674 736.468 52.9497 739.69 54.0789C749.792 57.6226 759.416 62.4974 768.021 68.8871C777.202 75.6837 784.378 84.2828 789.253 94.0386C788.938 89.1362 788.09 84.3042 786.722 79.5732Z" fill="#EF3031"/>
<path d="M727.632 30.0937C749.714 32.6306 768.708 44.755 780.034 63.8871C782.938 68.9334 785.16 74.1846 786.724 79.5736C789.588 83.8058 791.975 88.2736 793.875 92.9067C792.434 82.2084 788.593 71.8834 783.223 62.4366L783.061 62.149C782.999 62.0327 782.911 61.892 782.794 61.7328C773.895 46.8482 761.281 34.8186 745.13 28.1811C736.601 24.6833 727.537 22.9359 718.381 22.4953C720.502 24.8149 722.549 27.2662 724.507 29.8C725.545 29.8887 726.594 29.9805 727.632 30.0937Z" fill="#3DBD9B"/>
<path d="M594.341 99.7299C595.764 93.6065 597.463 87.5351 599.449 81.5647C599.232 81.8095 599.011 82.0696 598.779 82.3144C589.237 93.3004 578.71 108.044 571.24 123.89C572.342 126.788 573.621 129.631 575.029 132.403C580.148 120.833 586.746 109.905 594.341 99.7299Z" fill="#3DBD9B"/>
<path d="M677.943 36.1357C673.759 34.7188 669.527 33.504 665.246 32.5125C655.753 36.457 646.704 41.4237 638.13 47.1646C647.317 44.3706 656.714 42.1642 666.213 40.68C670.044 39.003 673.952 37.4822 677.943 36.1357Z" fill="#3DBD9B"/>
<path d="M616.754 74.4413C624.656 66.8398 633.148 59.9361 642.218 53.8922C634.271 56.1598 626.425 58.8925 618.786 62.121C616.718 63.9235 614.704 65.7902 612.73 67.6875C610.285 73.4498 608.076 79.3742 606.157 85.3936C609.566 81.6112 613.101 77.9482 616.754 74.4413Z" fill="#3DBD9B"/>
<path d="M780.832 132.403C775.945 141.997 769.326 150.788 762.046 158.509C761.657 158.928 761.216 159.326 760.815 159.733C760.344 164.024 759.677 168.293 758.799 172.528C767.762 164.351 775.654 155.048 781.934 144.735C782.735 143.438 783.488 142.101 784.226 140.754C783.632 139.12 783.014 137.519 782.359 135.943C781.875 134.756 781.361 133.578 780.832 132.403Z" fill="#3DBD9B"/>
<path d="M710.239 202.15C711.61 201.611 712.981 201.07 714.352 200.513C726.507 195.512 738.215 188.881 748.809 180.836C749.951 176.741 750.875 172.595 751.609 168.433C732.003 185.291 707.916 196.599 682.743 202.991C691.927 203.502 701.129 203.251 710.239 202.15Z" fill="#3DBD9B"/>
<path d="M604.655 206.529C596.655 204.68 589.02 201.81 582.285 197.486C569.144 189.079 565.576 175.915 566.678 162.291C564.879 160.36 563.199 158.355 561.65 156.271C560.077 172.585 564.423 188.247 578.845 200.552C587.27 207.731 597.932 211.752 609.104 213.922C607.648 211.731 606.249 209.482 604.988 207.168C604.878 206.96 604.768 206.743 604.655 206.529Z" fill="#3DBD9B"/>
<path d="M677.943 27.9531C682.249 29.2628 686.472 30.7868 690.625 32.5127C698.814 30.6123 707.192 29.5229 715.586 29.4617C713.686 27.087 711.657 24.7277 709.512 22.457C705.127 22.6376 700.751 23.066 696.46 23.7209C690.135 24.6818 683.957 26.1078 677.943 27.9531Z" fill="#3DBD9B"/>
<path d="M787.509 114.541C786.756 117.72 785.783 120.842 784.623 123.89C785.939 126.662 787.145 129.484 788.246 132.317C791.53 124.404 793.632 116.043 794.293 107.493C793.078 102.823 791.392 98.319 789.256 94.0378C789.688 100.795 789.128 107.662 787.509 114.541Z" fill="#3DBD9B"/>
<path d="M567.627 132.319C565.577 137.616 563.921 142.993 562.835 148.345C564.347 150.49 566.002 152.541 567.75 154.518C568.683 149.836 570.039 145.193 571.642 140.753C570.158 138.014 568.821 135.196 567.627 132.319Z" fill="#3DBD9B"/>
<path d="M613.674 208.184C610.626 207.762 607.611 207.214 604.655 206.537C604.768 206.742 604.866 206.96 604.989 207.168C606.25 209.484 607.648 211.724 609.105 213.937C612.116 214.515 615.167 214.965 618.218 215.314C616.596 213.016 615.084 210.629 613.674 208.184Z" fill="#F68522"/>
<path d="M709.514 22.4611C711.653 24.7348 713.685 27.085 715.585 29.4627C718.557 29.4352 721.537 29.5576 724.505 29.7993C722.544 27.2655 720.503 24.8174 718.376 22.4947C715.426 22.3478 712.464 22.3479 709.514 22.4611Z" fill="#3DBD9B"/>
<path d="M606.157 85.3946C608.082 79.3752 610.286 73.4568 612.728 67.6884C608.085 72.1226 603.654 76.7618 599.453 81.5663C597.463 87.5336 595.765 93.608 594.336 99.7314C598.051 94.7648 602.014 89.9848 606.157 85.3946Z" fill="#F68522"/>
<path d="M751.612 168.435C750.871 172.606 749.95 176.743 748.812 180.837C752.266 178.221 755.599 175.442 758.8 172.532C759.678 168.291 760.342 164.025 760.816 159.741C757.882 162.773 754.806 165.684 751.612 168.435Z" fill="#3DBD9B"/>
<path d="M642.222 53.8933C649.499 49.0429 657.147 44.7251 665.204 41.1171C665.534 40.9641 665.874 40.8295 666.214 40.6826C656.715 42.1637 647.314 44.37 638.131 47.164C631.368 51.6961 624.911 56.7086 618.781 62.1221C626.413 58.8936 634.272 56.1701 642.222 53.8933Z" fill="#3DBD9B"/>
<path d="M567.756 154.518C566.002 152.541 564.347 150.494 562.835 148.351C562.29 151.005 561.902 153.646 561.645 156.271C563.196 158.364 564.882 160.36 566.672 162.291C566.877 159.699 567.254 157.1 567.756 154.518Z" fill="#40AAA3"/>
<path d="M789.256 94.0346C791.386 98.3188 793.079 102.811 794.294 107.493C794.346 106.679 794.44 105.859 794.483 105.036C794.645 100.95 794.425 96.9081 793.883 92.9084C791.965 88.2723 789.587 83.8044 786.723 79.566C788.084 84.3001 788.935 89.1383 789.256 94.0346Z" fill="#E8402D"/>
<path d="M666.787 209.17C664.685 208.591 662.592 207.976 660.499 207.325C659.734 207.435 658.969 207.572 658.207 207.664C655.615 208.007 653.017 208.276 650.425 208.518C638.82 209.574 626.011 209.886 613.669 208.175C615.083 210.63 616.597 213.016 618.222 215.315C626.035 216.187 633.887 216.373 641.207 216.254C653.549 216.067 665.854 214.54 677.942 211.918C674.193 211.116 670.469 210.183 666.787 209.17Z" fill="#3DBD9B"/>
<path d="M734.387 59.7954C737.086 65.374 739.497 71.0996 741.642 76.9292C745.918 81.1706 750.03 85.6201 753.957 90.2471C752.931 86.7248 751.821 83.2178 750.633 79.7568C749.813 77.379 748.907 74.9187 747.928 72.4063C743.61 68.0027 739.093 63.7858 734.387 59.7954Z" fill="#F57533"/>
<path d="M628.23 30.0941C630.247 29.8676 632.251 29.7207 634.265 29.6167C636.223 27.1012 638.289 24.6899 640.434 22.3978C637.414 22.4468 634.405 22.6364 631.416 22.9853C629.313 25.3937 627.333 27.9184 625.445 30.4858C626.379 30.3451 627.3 30.2042 628.23 30.0941Z" fill="#F57533"/>
<path d="M598.66 163.357C597.01 161.784 595.394 160.177 593.834 158.51C592.38 156.992 590.976 155.422 589.602 153.812C589.957 158.222 590.529 162.598 591.275 166.947C594.397 170.148 597.702 173.192 601.129 176.09C600.113 171.873 599.296 167.632 598.66 163.357Z" fill="#F57533"/>
<path d="M788.53 156.825C789.014 159.787 789.304 162.749 789.36 165.684C791.235 162.544 792.842 159.279 794.189 155.922C793.895 153 793.414 150.041 792.759 147.091C791.618 150.451 790.189 153.685 788.53 156.825Z" fill="#E8402D"/>
<path d="M794.191 155.921C793.891 152.99 793.414 150.04 792.762 147.09C791.682 142.154 790.133 137.209 788.242 132.315C787.052 135.198 785.705 138.013 784.215 140.752C786.091 145.912 787.633 151.359 788.53 156.824C789.013 159.786 789.304 162.752 789.362 165.68C789.631 178.071 785.626 189.782 773.593 197.485C765.395 202.736 755.908 205.854 746.018 207.583C743.083 208.1 740.133 208.492 737.162 208.78C730.227 209.425 723.229 209.508 716.444 209.239C712.689 209.089 708.99 208.847 705.44 208.517C702.071 208.214 698.72 207.797 695.366 207.326C691.072 208.657 686.736 209.863 682.372 210.904C680.894 211.268 679.419 211.601 677.944 211.919C690.008 214.545 702.322 216.066 714.657 216.256C720.404 216.341 726.488 216.247 732.62 215.788C735.625 215.546 738.624 215.228 741.623 214.79C754.626 212.902 767.304 208.838 777.029 200.551C791.55 188.17 795.844 172.364 794.191 155.921Z" fill="#E80C78"/>
<path d="M561.379 104.625C562.903 102.245 564.62 99.9557 566.468 97.7463C566.508 94.3495 566.789 90.9711 567.337 87.6293C565.345 89.7868 563.497 92.0115 561.817 94.3096C561.416 97.7187 561.26 101.164 561.379 104.625Z" fill="#E8402D"/>
<path d="M659.406 23.7217C653.166 22.7669 646.798 22.2835 640.433 22.3967C637.412 22.4456 634.401 22.6384 631.414 22.9842C624.339 23.7921 617.368 25.4476 610.749 28.1804C594.582 34.8179 581.977 46.8627 573.063 61.7321C572.977 61.8912 572.876 62.032 572.809 62.1483L572.641 62.4359C567.037 72.3019 563.099 83.0982 561.814 94.3107C561.41 97.7197 561.254 101.165 561.379 104.623L561.391 105.034C561.789 114.444 564.02 123.645 567.622 132.315C568.727 129.484 569.939 126.663 571.245 123.884C570.092 120.833 569.121 117.721 568.362 114.545C567.037 108.929 566.419 103.308 566.465 97.7472C566.508 94.3443 566.79 90.972 567.337 87.6303C568.675 79.4076 571.499 71.4267 575.835 63.8864C586.678 45.5682 604.561 33.6979 625.45 30.4939C626.368 30.3439 627.304 30.2031 628.229 30.093C630.242 29.8665 632.247 29.7196 634.263 29.6095C644.671 29.074 655.091 30.1603 665.244 32.5136C669.394 30.7877 673.635 29.2636 677.944 27.9539C671.916 26.1086 665.731 24.6795 659.406 23.7217Z" fill="#E80C78"/>
<path d="M685.017 38.7391C686.92 39.5011 688.805 40.2906 690.669 41.1169C694.467 42.8122 698.163 44.7034 701.783 46.6956C704.008 46.8302 706.224 46.9863 708.448 47.2128C712.421 47.6289 716.39 48.2074 720.34 48.9326C715.11 45.2941 709.691 41.9279 704.082 38.9289C697.744 38.476 691.376 38.43 685.017 38.7391Z" fill="#E8402D"/>
<path d="M757.077 82.3227C754.146 78.932 751.082 75.624 747.927 72.4078C743.609 68.0011 739.093 63.7842 734.386 59.7968C729.872 55.9471 725.19 52.3177 720.34 48.9362C715.113 45.2916 709.684 41.9407 704.1 38.9264C699.702 36.5609 695.213 34.4249 690.619 32.5154C686.332 33.5038 682.1 34.7187 677.944 36.1386C680.319 36.9434 682.678 37.8125 685.013 38.7397C686.908 39.5017 688.799 40.2882 690.668 41.1175C694.469 42.819 698.169 44.704 701.786 46.6931C715.422 54.1691 727.856 63.6189 739.114 74.4427C739.952 75.2598 740.794 76.0922 741.642 76.9307C745.917 81.1721 750.027 85.6215 753.959 90.2485C764.783 103.006 774.076 117.157 780.83 132.402C782.259 129.633 783.526 126.787 784.625 123.889C777.167 108.043 766.628 93.3026 757.077 82.3227Z" fill="#E80C78"/>
<path d="M667.349 201.457C641.839 194.171 617.765 181.667 598.664 163.358C597.011 161.785 595.392 160.179 593.835 158.511C592.381 156.984 590.976 155.423 589.602 153.82C584.005 147.292 578.959 140.098 575.039 132.411C574.513 133.577 573.995 134.755 573.494 135.945C572.863 137.518 572.233 139.122 571.648 140.756C572.374 142.102 573.136 143.439 573.922 144.746C578.812 152.77 584.682 160.191 591.27 166.948C594.398 170.149 597.7 173.187 601.127 176.076C605.16 179.476 609.365 182.656 613.732 185.615C622.508 191.533 631.866 196.543 641.515 200.518C647.74 203.061 654.074 205.341 660.5 207.327C666.33 206.519 672.15 205.454 677.94 204.141C674.397 203.324 670.853 202.455 667.349 201.457Z" fill="#E80C78"/>
<path d="M690.623 32.5136C686.476 30.7938 682.247 29.2667 677.938 27.9539C673.624 29.2667 669.395 30.7938 665.248 32.5136C669.523 33.5051 673.764 34.72 677.938 36.146C682.097 34.72 686.336 33.5051 690.623 32.5136Z" fill="#3DBD9B"/>
<path d="M782.362 135.943C783.011 137.519 783.632 139.12 784.21 140.751C785.707 138.015 787.038 135.191 788.247 132.317C787.142 129.483 785.936 126.662 784.62 123.889C783.525 126.787 782.252 129.63 780.832 132.403C781.365 133.578 781.872 134.753 782.362 135.943Z" fill="#3DBD9B"/>
<path d="M571.241 123.889C569.935 126.661 568.723 129.483 567.621 132.32C568.821 135.19 570.158 138.015 571.642 140.766C572.233 139.122 572.863 137.519 573.494 135.943C573.995 134.755 574.513 133.577 575.039 132.402C573.619 129.633 572.34 126.784 571.241 123.889Z" fill="#40A9A3"/>
<path d="M575.039 132.402C573.616 129.624 572.346 126.787 571.242 123.889C569.938 126.661 568.726 129.483 567.634 132.32C568.821 135.19 570.155 138.018 571.643 140.753C572.236 139.119 572.86 137.519 573.497 135.943C573.99 134.755 574.516 133.577 575.039 132.402Z" fill="#E80C78"/>
</svg>
