<svg width="250" height="220" viewBox="0 0 250 220" fill="none" xmlns="http://www.w3.org/2000/svg">
<path d="M47.4079 0.636815C37.3549 2.08289 28.3701 6.42111 23.2179 12.394C18.0029 18.3669 13.6675 29.6212 11.9711 41.4413C11.5941 44.019 8.57818 82.9373 5.31096 127.891C-1.2235 216.416 -1.09784 213.398 2.29505 216.982C4.61981 219.434 9.2065 220.189 19.071 219.874C28.0559 219.623 30.0037 218.994 32.8311 215.662C33.8992 214.341 34.6532 212.392 35.093 209.5C35.5328 207.174 38.2346 169.262 41.1248 125.376C44.0779 81.4284 46.7796 43.9562 47.1566 42.07C48.6646 34.7139 51.4292 32.0103 57.7123 32.0103C61.0423 32.0103 61.7963 32.2618 63.6813 33.8965C65.1264 35.2169 66.2574 37.103 67.137 39.7437C68.0795 42.4472 71.598 66.2131 78.5095 116.889C88.8766 192.902 89.6934 197.554 93.4633 204.533C95.9766 209.186 100.752 214.09 104.522 215.913C109.799 218.491 114.009 219.434 122.491 219.811C134.806 220.314 144.105 218.24 150.451 213.335C155.666 209.374 159.813 200.006 161.761 187.935C162.264 184.665 166.787 151.217 171.814 113.682C176.84 76.147 181.364 43.7676 181.867 41.7556C183.752 34.5253 186.454 32.0103 192.36 32.0103C198.769 32.0103 201.659 35.4684 202.915 44.6478C203.292 47.2256 205.994 84.3834 208.884 127.263C211.838 170.142 214.414 206.482 214.602 208.054C215.922 217.485 219.817 220 233.012 220C241.682 219.937 245.389 219.246 247.651 217.045C251.17 213.713 251.233 216.856 244.384 126.005C239.923 66.6532 237.724 40.6239 236.844 36.2857C234.268 23.7111 230.624 16.355 224.027 10.1306C219.503 5.91814 215.168 3.65471 208.068 1.70565C201.533 -0.0547887 185.888 -0.243403 179.417 1.39129C162.703 5.60377 153.467 17.4867 148.943 40.8125C148.566 42.6987 144.42 75.6441 139.77 113.996C135.12 152.349 130.974 184.791 130.534 186.112C129.528 189.632 128.209 190.576 124.628 190.324C121.989 190.135 121.423 189.884 120.229 188.123C119.475 186.992 118.722 185.043 118.533 183.722C118.282 182.402 114.449 151.029 109.925 114.059C105.464 77.0273 101.192 43.8304 100.5 40.1838C97.4217 23.774 91.3899 12.394 82.782 6.6726C74.2998 1.13979 60.5397 -1.24937 47.4079 0.636815Z" fill="white" fill-opacity="0.05"/>
</svg>
