<svg width="251" height="251" viewBox="0 0 251 251" fill="none" xmlns="http://www.w3.org/2000/svg">
<path d="M8.04139 141.808C1.19898 128.617 4.03047 116.029 10.9712 105.129C10.8452 101.656 11.0019 98.1977 11.4103 94.7765C1.42313 108.36 -2.99322 124.444 3.50522 142.747C5.33253 147.858 7.98295 152.59 11.2445 156.96C11.484 154.329 11.8864 151.672 12.433 149.006C10.8023 146.715 9.32818 144.317 8.04139 141.808Z" fill="#EF3031"/>
<path d="M132.765 203.848C131.156 204.257 129.55 204.631 127.953 205C122.139 206.317 116.298 207.386 110.441 208.197C112.548 208.851 114.646 209.465 116.749 210.049C120.456 211.065 124.188 211.999 127.953 212.807C129.433 212.496 130.913 212.152 132.397 211.787C136.776 210.743 141.131 209.53 145.44 208.197C150.482 206.64 155.454 204.908 160.356 203.004C151.226 204.109 141.978 204.352 132.765 203.848Z" fill="#3DBD9B"/>
<path d="M62.5042 68.0597C63.0078 66.8435 63.5392 65.6397 64.0767 64.445C60.5848 66.0266 57.1574 67.7219 53.7792 69.5154C52.0931 73.6184 50.573 77.7736 49.1787 81.981C53.3953 77.1624 57.8392 72.5067 62.5042 68.0597Z" fill="#F57533"/>
<path d="M194.861 194.287C198.117 192.994 201.344 191.541 204.48 189.938C206.393 184.45 207.91 178.891 209.093 173.274C205.883 176.198 202.548 178.989 199.072 181.612C197.899 185.906 196.492 190.144 194.861 194.287Z" fill="#F68522"/>
<path d="M58.4766 58.9487C61.996 57.2504 65.4848 55.6903 68.9122 54.2714C73.1626 45.915 78.1808 37.4633 84.1233 29.8439C82.0964 29.9575 80.0848 30.1018 78.064 30.3322C77.1273 30.4427 76.2 30.5871 75.2664 30.7314C70.6966 36.9811 66.6949 43.5594 63.1908 49.8428C61.5293 52.8249 59.966 55.8653 58.4766 58.9487Z" fill="#F68522"/>
<path d="M50.8595 176.85C47.4229 173.936 44.1092 170.892 40.9736 167.674C41.4312 170.29 41.9411 172.894 42.5399 175.48C45.6141 177.348 48.7495 179.095 51.8636 180.732C51.5227 179.439 51.1789 178.143 50.8595 176.85Z" fill="#F68522"/>
<path d="M55.9095 85.8291C51.7512 90.4357 47.7742 95.2328 44.0459 100.217C42.4244 107.189 41.1407 114.234 40.1825 121.294C38.7207 132.2 38.3982 143.385 39.2858 154.496C40.6739 156.108 42.0804 157.681 43.5423 159.207C45.0993 160.878 46.73 162.484 48.3853 164.072C44.5556 138.016 47.8387 111.012 55.9095 85.8291Z" fill="#F68522"/>
<path d="M174.543 42.0902C177.902 42.8119 181.238 43.6718 184.548 44.6699C181.539 39.5995 178.256 34.6643 174.684 30.0362C171.702 29.7936 168.701 29.6707 165.726 29.6983C166.149 30.2327 166.555 30.7548 166.972 31.2953C169.657 34.7749 172.172 38.3834 174.543 42.0902Z" fill="#F57533"/>
<path d="M191.887 77.3322C194.574 84.6875 196.856 92.1994 198.726 99.7421C203.489 119.01 205.436 138.807 203.382 158.566C203.01 162.101 202.504 165.642 201.883 169.165C205.089 166.404 208.167 163.486 211.121 160.433C213.765 137.164 210.808 113.32 204.233 90.7038C200.295 86.0572 196.162 81.5949 191.887 77.3322Z" fill="#F68522"/>
<path d="M190.501 203.968C189.518 205.891 188.468 207.78 187.368 209.641C190.362 209.367 193.323 208.974 196.268 208.461C197.819 205.654 199.253 202.786 200.54 199.875C197.26 201.376 193.906 202.743 190.501 203.968Z" fill="#F68522"/>
<path d="M181.63 218.358C168.344 236.275 148.287 246.695 125.969 246.95C107.892 246.901 91.3546 240.405 78.198 228.02C74.4052 224.442 71.0178 220.468 68.0173 216.214C64.9523 215.864 61.8873 215.413 58.8623 214.826C65.1918 224.35 73.2842 232.715 82.9582 238.839C95.6971 246.922 110.647 250.35 125.616 250.445H125.969C126.089 250.445 126.264 250.445 126.448 250.436C143.858 250.159 160.626 245.236 174.526 234.524C181.338 229.267 187.068 222.811 191.859 215.689C188.85 216.125 185.843 216.448 182.827 216.678C182.428 217.237 182.035 217.811 181.63 218.358Z" fill="#F68522"/>
<path d="M109.083 8.04043C128.342 -1.93143 146.305 8.62694 159.634 22.6711C162.594 22.5605 165.567 22.5606 168.53 22.708C152.739 5.42385 132.393 -5.10082 108.144 3.51054C97.6343 7.25114 88.7648 14.5389 81.2529 23.1963C84.2565 22.8462 87.2753 22.6588 90.3065 22.6066C95.856 16.7254 102.072 11.6613 109.083 8.04043Z" fill="#F68522"/>
<path d="M49.8369 187.697C48.2707 186.819 46.6952 185.907 45.0859 184.976C47.4875 192.743 50.5647 200.264 54.3975 207.395C57.3703 208.083 60.3954 208.633 63.448 209.06C60.0268 203.123 57.2045 196.818 54.9165 190.393C53.2212 189.524 51.523 188.637 49.8369 187.697Z" fill="#F68522"/>
<path d="M184.596 60.1384C189.32 64.1431 193.853 68.3751 198.186 72.7944C195.873 66.8672 193.116 60.6268 189.915 54.3955C186.694 53.2653 183.411 52.2826 180.106 51.4134C181.685 54.2757 183.181 57.1779 184.596 60.1384Z" fill="#F68522"/>
<path d="M183.828 198.141C176.132 200.447 168.279 202.041 160.35 203.003C155.454 204.907 150.473 206.642 145.439 208.196C148.802 208.672 152.165 209.086 155.546 209.394C159.115 209.722 162.825 209.968 166.59 210.115C174.741 208.773 182.756 206.722 190.502 203.958C192.102 200.81 193.548 197.579 194.86 194.287C191.22 195.746 187.52 197.029 183.828 198.141Z" fill="#EF3031"/>
<path d="M64.0674 64.4336C65.5691 63.7641 67.0679 63.1099 68.585 62.4742C74.7303 57.0476 81.2164 52.011 87.9974 47.4627C85.3716 48.252 82.7643 49.1087 80.1785 49.9932C76.5761 51.2401 72.7924 52.662 68.9136 54.2682C67.6329 56.7803 66.4353 59.2802 65.2959 61.734C64.8752 62.6338 64.4728 63.5338 64.0674 64.4336Z" fill="#EF3031"/>
<path d="M151.879 46.991C148.242 44.9948 144.539 43.0999 140.721 41.3955C138.854 40.5601 136.962 39.7708 135.052 39.0061C128.741 39.3224 122.436 39.9858 116.18 40.9563C115.842 41.1068 115.501 41.2419 115.16 41.3955C107.077 45.0132 99.4088 49.3496 92.0996 54.2173C94.6363 53.4833 97.1791 52.8077 99.7404 52.172C116.837 47.9339 134.346 45.9499 151.879 46.991Z" fill="#EF3031"/>
<path d="M250.444 124.92C250.444 124.791 250.444 124.632 250.425 124.45C250.257 113.668 248.309 103.131 244.305 93.3706C244.851 97.3784 245.069 101.451 244.904 105.538C244.867 106.368 244.762 107.191 244.704 108.008C246.11 113.447 246.881 119.11 246.946 124.92C246.924 132.884 245.641 140.546 243.178 147.754C243.835 150.711 244.317 153.666 244.615 156.608C248.592 146.707 250.379 135.992 250.444 125.267V124.92Z" fill="#EF3031"/>
<path d="M117.319 202.307C120.836 203.308 124.392 204.181 127.948 205C129.552 204.632 131.158 204.257 132.755 203.849C127.604 203.563 122.451 203.044 117.319 202.307Z" fill="#E8402D"/>
<path d="M204.483 189.938C203.949 191.449 203.396 192.963 202.813 194.465C202.103 196.283 201.351 198.083 200.54 199.873C203.086 198.712 205.592 197.493 208.034 196.154C220.389 189.416 231.282 179.859 238.846 167.936C239.165 167.433 239.479 166.917 239.767 166.404C239.712 163.465 239.417 160.486 238.932 157.513C236.045 162.943 232.415 168.035 228.014 172.7C221.338 179.794 213.211 185.463 204.483 189.938Z" fill="#EF3031"/>
<path d="M31.2873 83.9249C38.3324 78.486 45.8995 73.7135 53.7799 69.5154C55.2325 65.9406 56.8018 62.418 58.4786 58.9477C43.4609 66.1985 28.0993 75.9831 16.9543 88.074C16.3984 91.4184 16.119 94.812 16.0791 98.2271C20.5905 92.8649 25.9251 88.0402 31.2873 83.9249Z" fill="#EF3031"/>
<path d="M91.3928 201.359C81.7127 197.373 72.3182 192.348 63.5134 186.409C62.9176 186.132 62.3278 185.868 61.7351 185.598C58.4889 184.096 55.1815 182.468 51.8678 180.727C48.7476 179.096 45.615 177.355 42.5377 175.479C33.2538 169.865 24.4244 163.154 17.3671 155.2C16.8695 157.789 16.4887 160.399 16.2891 163.001C24.5135 171.852 34.9859 179.047 45.0898 184.978C46.6929 185.908 48.2716 186.82 49.844 187.705C51.5239 188.626 53.219 189.523 54.9173 190.395C71.6211 199.003 89.6852 204.952 108.146 208.536C108.91 208.444 109.678 208.315 110.446 208.198C103.987 206.202 97.6394 203.917 91.3928 201.359Z" fill="#EF3031"/>
<path d="M190.501 203.967C193.907 202.742 197.261 201.375 200.541 199.874C201.351 198.092 202.098 196.277 202.813 194.462C203.394 192.964 203.949 191.45 204.471 189.945C201.345 191.536 198.114 192.994 194.862 194.287C193.548 197.589 192.101 200.81 190.501 203.967Z" fill="#F68522"/>
<path d="M65.2959 61.7346C66.4292 59.2808 67.6361 56.7809 68.9168 54.2688C65.4864 55.6845 61.9945 57.2508 58.475 58.943C56.792 62.4195 55.2319 65.9512 53.7793 69.5137C57.1606 67.7202 60.588 66.0249 64.0676 64.4402C64.473 63.5373 64.8752 62.6406 65.2959 61.7346Z" fill="#F68522"/>
<path d="M237.119 79.9873C236.287 78.7588 235.433 77.5581 234.518 76.3665C224.361 63.2037 209.792 54.0671 194.467 48.0785C191.188 46.7978 187.883 45.6615 184.548 44.6695C181.237 43.6714 177.899 42.8145 174.542 42.0898C167.819 40.6187 161.035 39.6759 154.199 39.1937C159.804 42.2157 165.252 45.5785 170.501 49.2362C173.716 49.8443 176.922 50.5753 180.107 51.4137C183.411 52.2828 186.685 53.2686 189.919 54.4019C200.057 57.9582 209.715 62.8505 218.351 69.2629C227.565 76.0839 234.766 84.7137 239.659 94.5044C239.342 89.5845 238.492 84.7352 237.119 79.9873Z" fill="#EF3031"/>
<path d="M177.818 30.3305C199.979 32.8765 219.041 45.0442 230.408 64.2448C233.322 69.3091 235.552 74.5791 237.121 79.9873C239.996 84.2347 242.391 88.7185 244.298 93.3682C242.852 82.6316 238.997 72.2696 233.608 62.7891L233.445 62.5004C233.383 62.3837 233.294 62.2425 233.178 62.0828C224.247 47.1449 211.588 35.0723 195.379 28.4111C186.819 24.9008 177.723 23.1472 168.534 22.7049C170.662 25.0328 172.717 27.4929 174.683 30.0357C175.724 30.1248 176.777 30.2169 177.818 30.3305Z" fill="#3DBD9B"/>
<path d="M44.0509 100.216C45.479 94.0708 47.1835 87.9777 49.1766 81.9859C48.9586 82.2316 48.7375 82.4927 48.5041 82.7383C38.9284 93.7636 28.3637 108.56 20.8672 124.462C21.9728 127.371 23.2564 130.224 24.6691 133.006C29.8071 121.394 36.4285 110.428 44.0509 100.216Z" fill="#3DBD9B"/>
<path d="M127.951 36.3942C123.753 34.9722 119.506 33.753 115.209 32.758C105.683 36.7166 96.6013 41.701 87.9961 47.4624C97.2155 44.6585 106.647 42.4442 116.18 40.9547C120.025 39.2717 123.946 37.7454 127.951 36.3942Z" fill="#3DBD9B"/>
<path d="M66.5442 74.8367C74.4738 67.2081 82.9963 60.2797 92.099 54.2143C84.1233 56.49 76.2489 59.2325 68.5835 62.4725C66.5074 64.2814 64.4866 66.1547 62.5057 68.0588C60.0519 73.8417 57.8348 79.7873 55.9092 85.8281C59.3304 82.0322 62.8774 78.3562 66.5442 74.8367Z" fill="#3DBD9B"/>
<path d="M231.209 133.006C226.304 142.634 219.661 151.457 212.355 159.205C211.965 159.626 211.523 160.025 211.121 160.434C210.648 164.739 209.978 169.024 209.097 173.274C218.092 165.068 226.012 155.732 232.314 145.382C233.119 144.08 233.874 142.738 234.614 141.387C234.019 139.747 233.398 138.141 232.741 136.559C232.256 135.367 231.74 134.185 231.209 133.006Z" fill="#3DBD9B"/>
<path d="M160.363 203.002C161.738 202.461 163.114 201.918 164.49 201.359C176.688 196.341 188.439 189.686 199.071 181.612C200.216 177.502 201.144 173.341 201.881 169.164C182.204 186.083 158.031 197.431 132.769 203.846C141.985 204.359 151.22 204.107 160.363 203.002Z" fill="#3DBD9B"/>
<path d="M54.4011 207.396C46.3732 205.541 38.7108 202.66 31.9513 198.321C18.764 189.885 15.1832 176.673 16.2888 163C14.483 161.062 12.797 159.051 11.243 156.959C9.66444 173.331 14.0255 189.049 28.4995 201.398C36.9543 208.603 47.654 212.638 58.8666 214.816C57.4047 212.617 56.0011 210.36 54.7358 208.038C54.6253 207.829 54.5147 207.611 54.4011 207.396Z" fill="#3DBD9B"/>
<path d="M127.952 28.1824C132.273 29.4968 136.511 31.0262 140.679 32.7583C148.897 30.8511 157.306 29.7578 165.73 29.6964C163.822 27.3132 161.786 24.9455 159.634 22.6667C155.233 22.8479 150.841 23.2779 146.535 23.9351C140.187 24.8994 133.987 26.3305 127.952 28.1824Z" fill="#3DBD9B"/>
<path d="M237.909 115.08C237.153 118.271 236.177 121.403 235.013 124.462C236.333 127.245 237.543 130.076 238.649 132.92C241.944 124.978 244.054 116.588 244.717 108.007C243.498 103.321 241.806 98.8001 239.662 94.5036C240.095 101.285 239.533 108.176 237.909 115.08Z" fill="#3DBD9B"/>
<path d="M17.2421 132.921C15.1844 138.238 13.5229 143.633 12.4326 149.005C13.9497 151.158 15.6113 153.215 17.3649 155.199C18.3015 150.5 19.662 145.842 21.2712 141.385C19.7817 138.637 18.4398 135.808 17.2421 132.921Z" fill="#3DBD9B"/>
<path d="M63.4529 209.058C60.3941 208.634 57.369 208.084 54.4023 207.405C54.516 207.611 54.6143 207.829 54.7371 208.038C56.0024 210.363 57.406 212.611 58.8678 214.831C61.8898 215.412 64.9516 215.863 68.0135 216.213C66.3858 213.907 64.8687 211.512 63.4529 209.058Z" fill="#F68522"/>
<path d="M159.635 22.6707C161.781 24.9526 163.821 27.3111 165.728 29.6974C168.71 29.6697 171.701 29.7925 174.68 30.0352C172.711 27.4923 170.663 25.0354 168.529 22.7045C165.568 22.5571 162.595 22.5571 159.635 22.6707Z" fill="#3DBD9B"/>
<path d="M55.9095 85.8292C57.8412 79.7883 60.0525 73.8488 62.5032 68.0598C57.8444 72.5098 53.3974 77.1656 49.1808 81.9872C47.1846 87.9759 45.4801 94.072 44.0459 100.217C47.7742 95.2329 51.7512 90.4358 55.9095 85.8292Z" fill="#F68522"/>
<path d="M201.883 169.166C201.14 173.352 200.216 177.504 199.073 181.613C202.541 178.987 205.885 176.199 209.097 173.278C209.979 169.022 210.645 164.741 211.121 160.441C208.176 163.485 205.089 166.405 201.883 169.166Z" fill="#3DBD9B"/>
<path d="M92.1027 54.2155C99.4057 49.3478 107.08 45.0145 115.167 41.3937C115.498 41.2401 115.839 41.105 116.18 40.9576C106.647 42.444 97.213 44.6582 87.9967 47.4621C81.2095 52.0104 74.7295 57.0409 68.5781 62.4736C76.2374 59.2336 84.1239 56.5004 92.1027 54.2155Z" fill="#3DBD9B"/>
<path d="M17.3703 155.199C15.6106 153.215 13.949 151.161 12.4319 149.011C11.8852 151.674 11.4953 154.324 11.2373 156.959C12.7944 159.06 14.4865 161.062 16.2831 163C16.4889 160.399 16.8667 157.791 17.3703 155.199Z" fill="#40AAA3"/>
<path d="M239.662 94.5002C241.8 98.7997 243.498 103.308 244.717 108.007C244.769 107.19 244.864 106.367 244.907 105.541C245.07 101.441 244.849 97.3839 244.305 93.37C242.38 88.7173 239.994 84.2334 237.119 79.98C238.486 84.731 239.34 89.5865 239.662 94.5002Z" fill="#E8402D"/>
<path d="M116.755 210.047C114.645 209.467 112.545 208.85 110.444 208.195C109.676 208.306 108.909 208.444 108.144 208.536C105.543 208.88 102.935 209.15 100.334 209.393C88.6886 210.453 75.833 210.766 63.4473 209.049C64.8661 211.512 66.3862 213.908 68.017 216.214C75.8575 217.089 83.7379 217.277 91.084 217.157C103.47 216.969 115.819 215.437 127.95 212.805C124.187 212 120.45 211.064 116.755 210.047Z" fill="#3DBD9B"/>
<path d="M184.597 60.1388C187.305 65.7374 189.726 71.4834 191.878 77.3338C196.169 81.5904 200.296 86.0557 204.236 90.6992C203.208 87.1644 202.093 83.6449 200.901 80.1715C200.078 77.7852 199.169 75.3161 198.186 72.7948C193.853 68.3754 189.32 64.1435 184.597 60.1388Z" fill="#F57533"/>
<path d="M78.0612 30.331C80.0851 30.1037 82.0968 29.9563 84.1176 29.8518C86.0831 27.3274 88.156 24.9074 90.3089 22.6072C87.2777 22.6563 84.2587 22.8467 81.2583 23.1968C79.1484 25.6138 77.1615 28.1475 75.2666 30.7241C76.2033 30.5829 77.1276 30.4415 78.0612 30.331Z" fill="#F57533"/>
<path d="M48.3843 164.07C46.729 162.492 45.1075 160.879 43.5413 159.206C42.0825 157.682 40.6729 156.107 39.2939 154.492C39.6502 158.917 40.2245 163.309 40.9738 167.673C44.1063 170.885 47.423 173.941 50.8627 176.849C49.8431 172.617 49.0231 168.361 48.3843 164.07Z" fill="#F57533"/>
<path d="M238.934 157.515C239.419 160.488 239.711 163.461 239.766 166.406C241.648 163.255 243.261 159.978 244.612 156.609C244.317 153.676 243.835 150.706 243.178 147.746C242.032 151.118 240.598 154.364 238.934 157.515Z" fill="#E8402D"/>
<path d="M244.615 156.608C244.314 153.666 243.835 150.706 243.181 147.745C242.097 142.792 240.543 137.829 238.645 132.918C237.45 135.811 236.099 138.636 234.603 141.385C236.486 146.563 238.033 152.029 238.933 157.514C239.419 160.487 239.71 163.463 239.769 166.402C240.039 178.837 236.019 190.59 223.943 198.32C215.716 203.59 206.195 206.72 196.27 208.455C193.325 208.974 190.364 209.367 187.382 209.656C180.423 210.304 173.399 210.387 166.591 210.116C162.822 209.966 159.109 209.723 155.547 209.392C152.166 209.088 148.803 208.67 145.437 208.197C141.128 209.533 136.776 210.743 132.397 211.787C130.914 212.153 129.433 212.487 127.953 212.807C140.059 215.442 152.418 216.968 164.797 217.159C170.565 217.244 176.67 217.149 182.824 216.689C185.84 216.446 188.85 216.127 191.859 215.687C204.909 213.793 217.632 209.714 227.392 201.398C241.964 188.972 246.273 173.109 244.615 156.608Z" fill="#E80C78"/>
<path d="M10.9699 105.129C12.4993 102.74 14.2223 100.442 16.0772 98.2251C16.1171 94.8162 16.3997 91.4257 16.9494 88.0721C14.9501 90.2372 13.0951 92.4698 11.4091 94.7762C11.0068 98.1974 10.8501 101.655 10.9699 105.129Z" fill="#E8402D"/>
<path d="M109.348 23.9359C103.086 22.9777 96.6948 22.4925 90.3069 22.6062C87.2757 22.6553 84.2537 22.8488 81.2563 23.1958C74.1559 24.0066 67.16 25.668 60.5172 28.4105C44.2926 35.0718 31.6427 47.1597 22.6966 62.0823C22.6106 62.242 22.5093 62.3832 22.4417 62.4999L22.2728 62.7886C16.6496 72.6898 12.697 83.5248 11.4072 94.7773C11.0018 98.1985 10.8453 101.657 10.9712 105.127L10.9834 105.538C11.3826 114.982 13.6215 124.217 17.2362 132.917C18.3448 130.077 19.5611 127.245 20.8724 124.457C19.7146 121.395 18.741 118.271 17.9794 115.084C16.6496 109.448 16.0293 103.806 16.0753 98.2261C16.1183 94.8111 16.4008 91.4267 16.9505 88.073C18.2926 79.821 21.1273 71.8115 25.4791 64.2443C36.36 45.8606 54.3075 33.9478 75.2708 30.7323C76.1921 30.5818 77.1318 30.4405 78.0592 30.33C80.08 30.1027 82.0916 29.9553 84.1154 29.8448C94.5602 29.3073 105.017 30.3976 115.207 32.7593C119.372 31.0272 123.628 29.4977 127.952 28.1833C121.902 26.3314 115.696 24.8972 109.348 23.9359Z" fill="#E80C78"/>
<path d="M135.05 39.0069C136.96 39.7716 138.852 40.564 140.722 41.3932C144.533 43.0946 148.243 44.9925 151.876 46.9918C154.109 47.1269 156.333 47.2836 158.565 47.5108C162.552 47.9285 166.535 48.509 170.5 49.2368C165.251 45.5853 159.812 42.207 154.183 39.1974C147.823 38.7428 141.432 38.6967 135.05 39.0069Z" fill="#E8402D"/>
<path d="M207.369 82.7462C204.427 79.3434 201.352 76.0235 198.186 72.7958C193.853 68.3734 189.32 64.1414 184.596 60.1397C180.067 56.2763 175.368 52.6339 170.5 49.2403C165.255 45.5826 159.807 42.2198 154.202 39.1947C149.789 36.8207 145.283 34.6771 140.674 32.7607C136.371 33.7527 132.124 34.9719 127.953 36.3969C130.336 37.2046 132.704 38.0768 135.047 39.0074C136.948 39.7721 138.846 40.5614 140.723 41.3936C144.537 43.1012 148.25 44.993 151.88 46.9892C165.565 54.4919 178.043 63.9755 189.341 74.838C190.183 75.658 191.027 76.4934 191.878 77.3349C196.168 81.5914 200.293 86.0568 204.239 90.7003C215.102 103.504 224.429 117.705 231.206 133.005C232.641 130.226 233.912 127.369 235.015 124.461C227.53 108.559 216.954 93.7653 207.369 82.7462Z" fill="#E80C78"/>
<path d="M117.32 202.307C91.719 194.995 67.5588 182.446 48.389 164.071C46.7306 162.493 45.106 160.881 43.5428 159.207C42.084 157.674 40.6742 156.108 39.2953 154.499C33.6783 147.948 28.6141 140.728 24.68 133.013C24.1518 134.183 23.6328 135.366 23.1291 136.561C22.4965 138.139 21.8639 139.748 21.2773 141.388C22.0052 142.74 22.7698 144.082 23.5591 145.393C28.4667 153.445 34.3571 160.893 40.9692 167.674C44.1078 170.886 47.4216 173.936 50.8612 176.835C54.9089 180.247 59.1285 183.438 63.5109 186.408C72.3189 192.347 81.7104 197.375 91.3936 201.364C97.6402 203.916 103.997 206.204 110.447 208.197C116.297 207.386 122.138 206.318 127.949 205C124.392 204.18 120.836 203.308 117.32 202.307Z" fill="#E80C78"/>
<path d="M140.676 32.759C136.515 31.033 132.271 29.5005 127.947 28.183C123.616 29.5005 119.372 31.033 115.211 32.759C119.501 33.754 123.758 34.9732 127.947 36.4043C132.12 34.9732 136.374 33.754 140.676 32.759Z" fill="#3DBD9B"/>
<path d="M232.744 136.559C233.395 138.141 234.018 139.747 234.599 141.384C236.1 138.638 237.436 135.804 238.649 132.92C237.541 130.076 236.331 127.244 235.01 124.462C233.911 127.37 232.633 130.223 231.208 133.006C231.742 134.185 232.252 135.364 232.744 136.559Z" fill="#3DBD9B"/>
<path d="M20.8674 124.461C19.5561 127.244 18.34 130.075 17.2344 132.922C18.4382 135.803 19.7804 138.638 21.2699 141.398C21.8626 139.749 22.4952 138.14 23.1278 136.558C23.6315 135.367 24.1505 134.184 24.6788 133.005C23.2538 130.226 21.97 127.367 20.8674 124.461Z" fill="#40A9A3"/>
<path d="M24.6801 133.005C23.252 130.217 21.9774 127.37 20.8687 124.461C19.5604 127.244 18.3444 130.075 17.248 132.922C18.4396 135.803 19.7786 138.641 21.2712 141.386C21.867 139.746 22.4933 138.14 23.1321 136.558C23.6266 135.367 24.1549 134.184 24.6801 133.005Z" fill="#E80C78"/>
</svg>
