<svg width="800" height="250" viewBox="0 0 800 250" fill="none" xmlns="http://www.w3.org/2000/svg">
<path d="M18.4253 95.3782C15.0989 95.3782 13.4342 97.0399 13.4342 100.241V124.294H34.4208C45.2936 124.294 49.0056 120.071 49.0056 109.837C49.0056 99.7267 45.2936 95.3782 34.4208 95.3782H18.4253ZM34.4208 82.7091C54.2538 82.7091 62.4428 92.4343 62.4428 109.837C62.4428 127.877 53.1001 136.963 34.4208 136.963H13.4342V159.994C13.4342 164.728 12.2805 165.878 7.54639 165.878H5.88164C1.14755 165.878 0 164.728 0 159.994V97.2969C0 87.0607 4.3485 82.7091 14.5878 82.7091H34.4208Z" fill="#23498A"/>
<path d="M229.894 129.199V148.264C229.894 151.462 231.556 153.126 234.882 153.126H267.256C271.864 153.126 273.012 154.28 273.012 158.886V160.036C273.012 164.645 271.864 165.795 267.256 165.795H231.045C220.806 165.795 216.457 161.444 216.457 151.208V97.2109C216.457 86.9747 220.806 82.6231 231.045 82.6231H267.256C271.864 82.6231 273.012 83.7768 273.012 88.3823V89.536C273.012 94.1416 271.864 95.2922 267.256 95.2922H234.882C231.556 95.2922 229.894 96.9569 229.894 100.155V116.579H262.139C266.742 116.579 267.895 117.732 267.895 122.338V123.443C267.895 128.048 266.742 129.199 262.139 129.199H229.894Z" fill="#23498A"/>
<path d="M282.649 88.5411C282.649 83.807 283.8 82.6533 288.534 82.6533H290.199C294.933 82.6533 296.087 83.807 296.087 88.5411V148.297C296.087 151.495 297.751 153.16 301.075 153.16H318.662C323.261 153.16 324.415 154.31 324.415 158.916V160.069C324.415 164.675 323.261 165.826 318.662 165.826H297.24C287.001 165.826 282.649 161.477 282.649 151.238V88.5411Z" fill="#23498A"/>
<path d="M334.116 88.4626C334.116 83.7285 335.264 82.5748 340.001 82.5748H341.663C346.4 82.5748 347.55 83.7285 347.55 88.4626V148.215C347.55 151.413 349.215 153.078 352.541 153.078H370.125C374.728 153.078 375.878 154.232 375.878 158.837V159.988C375.878 164.596 374.728 165.747 370.125 165.747H348.704C338.465 165.747 334.116 161.396 334.116 151.159V88.4626Z" fill="#23498A"/>
<path d="M521.848 86.4095C521.848 84.2245 520.079 82.4557 517.894 82.4557H512.817C510.635 82.4557 508.863 84.2245 508.863 86.4095V134.433L508.839 134.427V148.84C508.839 150.269 507.655 151.432 506.198 151.432C505.017 151.432 504.05 150.655 503.716 149.599L493.205 110.374L493.177 110.38L489.098 95.2075C487.485 87.9763 481.46 82.4557 473.932 82.4557C465.397 82.4557 458.475 89.5063 458.475 98.2033C458.475 98.2186 458.481 98.2371 458.481 98.2554H458.45V161.748C458.45 163.933 460.219 165.705 462.404 165.705H467.481C469.666 165.705 471.435 163.933 471.435 161.748V113.725L471.462 113.731V99.3173C471.462 97.8851 472.643 96.7253 474.1 96.7253C475.284 96.7253 476.251 97.5057 476.585 98.5584L476.588 98.5614L487.097 137.784L487.121 137.777L491.2 152.95C492.816 160.184 498.838 165.705 506.366 165.705C514.901 165.705 521.823 158.651 521.823 149.957C521.823 149.939 521.817 149.92 521.817 149.902H521.848V86.4095Z" fill="#23498A"/>
<path d="M435.126 115.252C435.126 107.702 433.718 102.329 431.031 99.1307C428.345 95.8074 422.842 94.1426 414.782 94.1426C406.721 94.1426 401.219 95.8074 398.532 99.1307C395.842 102.329 394.435 107.702 394.435 115.252V133.551C394.435 140.972 395.842 146.346 398.532 149.672C401.219 152.999 406.721 154.664 414.782 154.664C422.842 154.664 428.345 152.999 431.031 149.672C433.718 146.346 435.126 140.972 435.126 133.551V115.252ZM388.296 157.289C383.305 151.53 380.872 144.556 380.872 133.551V116.583C380.872 105.579 382.754 96.7071 387.745 90.954C392.733 85.1947 401.562 82.2508 414.231 82.2508C426.9 82.2508 435.726 85.1947 440.717 90.954C445.705 96.7071 448.692 105.579 448.692 116.583V133.551C448.692 144.556 446.13 151.53 441.142 157.289C436.151 163.048 427.451 165.864 414.782 165.864C402.113 165.864 393.284 163.048 388.296 157.289Z" fill="#23498A"/>
<path d="M425.703 70.5532H403.859C402.051 70.5532 400.582 69.0843 400.582 67.2727V64.7756C400.582 62.9671 402.051 61.4951 403.859 61.4951H425.703C427.515 61.4951 428.98 62.9671 428.98 64.7756V67.2727C428.98 69.0843 427.515 70.5532 425.703 70.5532Z" fill="#23498A"/>
<path d="M158.843 129.175V148.368C158.843 151.566 160.508 153.231 163.834 153.231H176.118C189.041 153.231 193.136 150.158 193.136 141.461C193.136 133.269 189.298 129.175 178.548 129.175H158.843ZM163.834 95.3966C160.508 95.3966 158.843 97.0583 158.843 100.259V117.531H176.886C186.994 117.531 190.574 113.436 190.574 106.273C190.574 99.1056 186.994 95.3966 176.886 95.3966H163.834ZM176.886 82.7276C195.183 82.7276 204.268 90.1515 204.268 104.865C204.268 114.204 201.071 119.45 192.367 122.522V123.033C203.246 126.488 206.827 132.504 206.827 142.355C206.827 158.093 196.848 165.9 176.886 165.9H159.997C149.758 165.9 145.409 161.548 145.409 151.312V97.3154C145.409 87.0792 149.758 82.7276 159.997 82.7276H176.886Z" fill="#23498A"/>
<path d="M84.3568 130.609H113.915L106.366 104.438C104.318 96.8886 103.296 95.2269 99.2017 95.2269C95.1072 95.2269 93.9565 96.8886 91.9093 104.438L84.3568 130.609ZM135.413 160.164C136.566 164.644 135.798 165.794 131.064 165.794H129.271C124.537 165.794 123.258 164.644 121.85 160.164L117.113 142.764H81.1589L76.4248 160.164C75.0141 164.644 73.738 165.794 69.004 165.794H67.2107C62.4797 165.794 61.7115 164.644 62.8621 160.164L78.6006 104.08C80.9019 95.7625 83.3347 90.1317 85.893 87.1909C88.5829 84.1216 92.9314 82.5853 99.2017 82.5853C105.469 82.5853 109.82 84.1216 112.379 87.1909C114.94 90.1317 117.37 95.7625 119.674 104.08L135.413 160.164Z" fill="#23498A"/>
<path d="M722.11 159.899C722.493 164.551 721.348 165.698 716.696 165.698H714.808C710.139 165.698 709.018 164.551 708.633 159.899L704.609 101.722C704.226 96.1835 702.972 94.9257 700.205 94.9257C697.809 94.9257 696.545 96.1835 695.786 101.722L689.002 152.344C687.732 161.916 684.84 165.698 675.011 165.698C666.953 165.698 662.415 162.794 661.035 152.344L654.116 101.722C653.357 96.1835 652.099 94.9257 649.584 94.9257C647.072 94.9257 645.682 96.1835 645.297 101.722L641.392 159.899C641.144 164.551 639.886 165.698 635.232 165.698H633.331C628.677 165.698 627.554 164.551 627.921 159.899L632.193 101.588C633.209 88.3709 638.371 83.0921 649.446 83.0921C659.786 83.0921 664.692 88.2485 666.326 101.588L672.254 150.205C672.746 153.978 673.132 154.737 675.011 154.737C676.783 154.737 677.156 153.978 677.664 150.205L683.579 101.588C685.22 88.2485 690.272 83.0921 700.45 83.0921C711.534 83.0921 716.696 88.2485 717.7 101.588L722.11 159.899Z" fill="#23498A"/>
<path d="M558.46 140.859C551.642 127.716 554.463 115.172 561.379 104.311C561.254 100.85 561.41 97.4047 561.817 93.9956C551.865 107.531 547.464 123.557 553.94 141.796C555.76 146.888 558.401 151.603 561.651 155.958C561.89 153.335 562.291 150.688 562.836 148.032C561.211 145.749 559.742 143.359 558.46 140.859Z" fill="#EF3031"/>
<path d="M682.739 202.678C681.136 203.085 679.536 203.459 677.944 203.826C672.151 205.139 666.331 206.204 660.495 207.012C662.594 207.664 664.685 208.276 666.781 208.857C670.474 209.87 674.193 210.8 677.944 211.605C679.419 211.296 680.894 210.953 682.372 210.589C686.736 209.549 691.075 208.34 695.369 207.012C700.394 205.46 705.348 203.734 710.232 201.837C701.134 202.939 691.92 203.18 682.739 202.678Z" fill="#3DBD9B"/>
<path d="M612.729 67.3739C613.231 66.1621 613.761 64.9625 614.296 63.7721C610.817 65.348 607.401 67.0373 604.035 68.8244C602.355 72.9128 600.84 77.0532 599.451 81.2456C603.653 76.4442 608.081 71.805 612.729 67.3739Z" fill="#F57533"/>
<path d="M744.615 193.151C747.859 191.863 751.075 190.415 754.2 188.818C756.106 183.349 757.618 177.81 758.796 172.213C755.598 175.126 752.275 177.908 748.811 180.522C747.642 184.8 746.24 189.023 744.615 193.151Z" fill="#F68522"/>
<path d="M608.716 58.2954C612.223 56.6031 615.699 55.0485 619.114 53.6347C623.35 45.308 628.35 36.8864 634.271 29.2941C632.252 29.4073 630.247 29.5512 628.234 29.7807C627.3 29.8908 626.376 30.0347 625.446 30.1785C620.892 36.406 616.905 42.9608 613.413 49.2219C611.758 52.1933 610.2 55.223 608.716 58.2954Z" fill="#F68522"/>
<path d="M601.125 175.776C597.701 172.872 594.399 169.84 591.274 166.633C591.73 169.24 592.238 171.835 592.835 174.412C595.898 176.272 599.023 178.013 602.126 179.645C601.786 178.356 601.443 177.065 601.125 175.776Z" fill="#F68522"/>
<path d="M606.157 85.0805C602.014 89.6708 598.051 94.4508 594.336 99.4174C592.72 106.364 591.441 113.384 590.486 120.419C589.03 131.286 588.708 142.431 589.593 153.503C590.976 155.109 592.377 156.676 593.834 158.197C595.385 159.862 597.01 161.462 598.66 163.044C594.844 137.082 598.115 110.174 606.157 85.0805Z" fill="#F68522"/>
<path d="M724.369 41.4969C727.716 42.216 731.04 43.0728 734.339 44.0674C731.34 39.015 728.068 34.0974 724.509 29.4857C721.538 29.244 718.548 29.1215 715.583 29.1491C716.005 29.6815 716.409 30.2018 716.825 30.7404C719.5 34.2076 722.006 37.8032 724.369 41.4969Z" fill="#F57533"/>
<path d="M741.65 76.6135C744.328 83.9426 746.602 91.4278 748.465 98.9436C753.212 118.143 755.152 137.869 753.105 157.558C752.734 161.08 752.229 164.609 751.611 168.119C754.806 165.368 757.872 162.46 760.816 159.419C763.451 136.232 760.504 112.473 753.952 89.9375C750.029 85.3075 745.91 80.861 741.65 76.6135Z" fill="#F68522"/>
<path d="M740.27 202.798C739.29 204.714 738.244 206.596 737.148 208.45C740.132 208.178 743.082 207.786 746.017 207.275C747.562 204.478 748.991 201.62 750.274 198.719C747.005 200.215 743.663 201.577 740.27 202.798Z" fill="#F68522"/>
<path d="M731.43 217.137C718.192 234.99 698.206 245.373 675.967 245.627C657.955 245.578 641.476 239.106 628.367 226.764C624.587 223.199 621.212 219.239 618.222 215.001C615.168 214.652 612.114 214.202 609.1 213.618C615.407 223.107 623.47 231.443 633.11 237.545C645.803 245.599 660.7 249.015 675.616 249.109H675.967C676.087 249.109 676.261 249.109 676.445 249.1C693.793 248.825 710.501 243.919 724.352 233.245C731.139 228.006 736.85 221.574 741.623 214.477C738.624 214.912 735.628 215.233 732.623 215.463C732.226 216.02 731.834 216.592 731.43 217.137Z" fill="#F68522"/>
<path d="M659.142 7.56848C678.333 -2.36789 696.232 8.1529 709.513 22.1471C712.463 22.0369 715.425 22.037 718.378 22.1839C702.643 4.96122 682.369 -5.52601 658.206 3.05471C647.734 6.782 638.896 14.0438 631.411 22.6704C634.404 22.3216 637.412 22.1348 640.433 22.0828C645.962 16.2226 652.156 11.1764 659.142 7.56848Z" fill="#F68522"/>
<path d="M600.106 186.586C598.545 185.71 596.976 184.801 595.372 183.874C597.765 191.613 600.831 199.108 604.65 206.213C607.613 206.899 610.627 207.447 613.669 207.872C610.26 201.957 607.447 195.674 605.168 189.272C603.478 188.406 601.786 187.522 600.106 186.586Z" fill="#F68522"/>
<path d="M734.386 59.4808C739.093 63.4713 743.609 67.6882 747.927 72.0918C745.623 66.1857 742.875 59.9674 739.686 53.7583C736.476 52.6322 733.205 51.6529 729.912 50.7869C731.485 53.639 732.975 56.5308 734.386 59.4808Z" fill="#F68522"/>
<path d="M733.621 196.992C725.952 199.29 718.128 200.878 710.226 201.836C705.348 203.733 700.385 205.462 695.369 207.011C698.72 207.485 702.071 207.898 705.44 208.204C708.996 208.532 712.693 208.776 716.445 208.923C724.566 207.586 732.553 205.542 740.271 202.788C741.865 199.651 743.307 196.432 744.614 193.151C740.987 194.605 737.3 195.884 733.621 196.992Z" fill="#EF3031"/>
<path d="M614.286 63.7607C615.783 63.0936 617.276 62.4418 618.788 61.8084C624.911 56.401 631.374 51.3824 638.131 46.8502C635.515 47.6367 632.917 48.4904 630.34 49.3717C626.75 50.6142 622.98 52.031 619.115 53.6315C617.839 56.1347 616.646 58.6257 615.51 61.0708C615.091 61.9674 614.69 62.8641 614.286 63.7607Z" fill="#EF3031"/>
<path d="M701.785 46.38C698.162 44.3909 694.471 42.5028 690.667 40.8044C688.807 39.972 686.922 39.1855 685.018 38.4235C678.73 38.7387 672.447 39.3998 666.214 40.3668C665.877 40.5167 665.537 40.6514 665.197 40.8044C657.143 44.4093 649.502 48.7302 642.219 53.5806C644.746 52.8492 647.28 52.176 649.832 51.5425C666.868 47.3195 684.315 45.3426 701.785 46.38Z" fill="#EF3031"/>
<path d="M800 124.032C800 123.903 800 123.744 799.982 123.563C799.813 112.819 797.873 102.32 793.883 92.5945C794.427 96.588 794.645 100.646 794.479 104.719C794.443 105.545 794.339 106.365 794.281 107.179C795.682 112.599 796.45 118.242 796.515 124.032C796.493 131.967 795.214 139.602 792.76 146.784C793.415 149.731 793.895 152.675 794.192 155.606C798.155 145.74 799.936 135.064 800 124.377V124.032Z" fill="#EF3031"/>
<path d="M667.349 201.143C670.853 202.14 674.396 203.01 677.94 203.827C679.537 203.459 681.138 203.086 682.729 202.679C677.597 202.395 672.462 201.877 667.349 201.143Z" fill="#E8402D"/>
<path d="M754.203 188.818C753.67 190.323 753.12 191.832 752.538 193.328C751.831 195.14 751.081 196.933 750.273 198.717C752.81 197.561 755.307 196.346 757.74 195.011C770.051 188.297 780.906 178.774 788.443 166.895C788.761 166.393 789.073 165.879 789.361 165.368C789.306 162.439 789.012 159.471 788.529 156.508C785.652 161.919 782.035 166.992 777.65 171.641C770.997 178.71 762.9 184.359 754.203 188.818Z" fill="#EF3031"/>
<path d="M581.623 83.1823C588.643 77.7628 596.183 73.0073 604.035 68.8241C605.483 65.262 607.047 61.752 608.717 58.294C593.753 65.5191 578.446 75.2688 567.341 87.3167C566.787 90.6492 566.509 94.0307 566.469 97.4336C570.964 92.0905 576.28 87.283 581.623 83.1823Z" fill="#EF3031"/>
<path d="M641.514 200.198C631.869 196.226 622.508 191.219 613.734 185.301C613.14 185.026 612.553 184.762 611.962 184.493C608.727 182.997 605.432 181.375 602.13 179.64C599.021 178.015 595.899 176.28 592.833 174.41C583.582 168.816 574.784 162.129 567.752 154.204C567.256 156.783 566.877 159.384 566.678 161.976C574.873 170.796 585.308 177.966 595.376 183.875C596.973 184.802 598.546 185.711 600.113 186.592C601.787 187.51 603.476 188.404 605.169 189.273C621.813 197.851 639.813 203.778 658.207 207.35C658.969 207.258 659.734 207.129 660.499 207.013C654.064 205.024 647.739 202.747 641.514 200.198Z" fill="#EF3031"/>
<path d="M740.271 202.797C743.664 201.576 747.006 200.215 750.274 198.718C751.082 196.943 751.826 195.135 752.539 193.326C753.117 191.833 753.671 190.324 754.191 188.825C751.076 190.41 747.857 191.863 744.616 193.152C743.306 196.441 741.865 199.652 740.271 202.797Z" fill="#F68522"/>
<path d="M615.511 61.0714C616.64 58.6263 617.843 56.1353 619.119 53.6321C615.701 55.0428 612.221 56.6035 608.714 58.2897C607.037 61.7538 605.483 65.273 604.035 68.8228C607.404 67.0356 610.82 65.3464 614.287 63.7673C614.691 62.8676 615.092 61.9741 615.511 61.0714Z" fill="#F68522"/>
<path d="M786.722 79.2587C785.893 78.0347 785.042 76.8382 784.13 75.6508C774.01 62.5349 759.493 53.4309 744.223 47.4636C740.954 46.1875 737.661 45.0552 734.338 44.0668C731.039 43.0722 727.713 42.2184 724.368 41.4962C717.669 40.0304 710.91 39.091 704.098 38.6105C709.682 41.6217 715.111 44.9726 720.341 48.6172C723.545 49.2232 726.74 49.9515 729.913 50.787C733.206 51.653 736.468 52.6353 739.69 53.7645C749.792 57.3081 759.416 62.183 768.021 68.5726C777.202 75.3692 784.378 83.9683 789.253 93.7241C788.938 88.8217 788.09 83.9898 786.722 79.2587Z" fill="#EF3031"/>
<path d="M727.632 29.7792C749.714 32.3161 768.708 44.4405 780.034 63.5727C782.938 68.6189 785.16 73.8702 786.724 79.2591C789.588 83.4914 791.975 87.9592 793.875 92.5923C792.434 81.8939 788.593 71.5689 783.223 62.1222L783.061 61.8345C782.999 61.7182 782.911 61.5775 782.794 61.4184C773.895 46.5337 761.281 34.5041 745.13 27.8666C736.601 24.3689 727.537 22.6215 718.381 22.1808C720.502 24.5004 722.549 26.9517 724.507 29.4855C725.545 29.5743 726.594 29.666 727.632 29.7792Z" fill="#3DBD9B"/>
<path d="M594.341 99.4154C595.764 93.292 597.463 87.2206 599.449 81.2502C599.232 81.4951 599.011 81.7552 598.779 82C589.237 92.986 578.71 107.73 571.24 123.575C572.342 126.473 573.621 129.316 575.029 132.089C580.148 120.518 586.746 109.59 594.341 99.4154Z" fill="#3DBD9B"/>
<path d="M677.943 35.8212C673.759 34.4044 669.527 33.1895 665.246 32.198C655.753 36.1426 646.704 41.1092 638.13 46.8501C647.317 44.0562 656.714 41.8497 666.213 40.3655C670.044 38.6886 673.952 37.1677 677.943 35.8212Z" fill="#3DBD9B"/>
<path d="M616.754 74.1268C624.656 66.5254 633.148 59.6216 642.218 53.5778C634.271 55.8454 626.425 58.5781 618.786 61.8066C616.718 63.609 614.704 65.4757 612.73 67.373C610.285 73.1353 608.076 79.0597 606.157 85.0791C609.566 81.2967 613.101 77.6338 616.754 74.1268Z" fill="#3DBD9B"/>
<path d="M780.832 132.088C775.945 141.682 769.326 150.474 762.046 158.195C761.657 158.614 761.216 159.012 760.815 159.419C760.344 163.709 759.677 167.978 758.799 172.213C767.762 164.037 775.654 154.734 781.934 144.421C782.735 143.123 783.488 141.786 784.226 140.44C783.632 138.806 783.014 137.205 782.359 135.629C781.875 134.442 781.361 133.264 780.832 132.088Z" fill="#3DBD9B"/>
<path d="M710.239 201.836C711.61 201.297 712.981 200.756 714.352 200.199C726.507 195.198 738.215 188.567 748.809 180.522C749.951 176.427 750.875 172.281 751.609 168.119C732.003 184.977 707.916 196.285 682.743 202.677C691.927 203.188 701.129 202.937 710.239 201.836Z" fill="#3DBD9B"/>
<path d="M604.655 206.214C596.655 204.366 589.02 201.495 582.285 197.171C569.144 188.765 565.576 175.6 566.678 161.976C564.879 160.045 563.199 158.041 561.65 155.957C560.077 172.271 564.423 187.933 578.845 200.238C587.27 207.417 597.932 211.438 609.104 213.607C607.648 211.416 606.249 209.167 604.988 206.854C604.878 206.646 604.768 206.428 604.655 206.214Z" fill="#3DBD9B"/>
<path d="M677.943 27.6386C682.249 28.9484 686.472 30.4723 690.625 32.1982C698.814 30.2979 707.192 29.2084 715.586 29.1472C713.686 26.7725 711.657 24.4132 709.512 22.1426C705.127 22.3231 700.751 22.7515 696.46 23.4064C690.135 24.3673 683.957 25.7933 677.943 27.6386Z" fill="#3DBD9B"/>
<path d="M787.509 114.226C786.756 117.406 785.783 120.527 784.623 123.575C785.939 126.348 787.145 129.169 788.246 132.003C791.53 124.089 793.632 115.729 794.293 107.179C793.078 102.509 791.392 98.0045 789.256 93.7233C789.688 100.48 789.128 107.347 787.509 114.226Z" fill="#3DBD9B"/>
<path d="M567.627 132.005C565.577 137.302 563.921 142.679 562.835 148.031C564.347 150.176 566.002 152.226 567.75 154.203C568.683 149.521 570.039 144.879 571.642 140.439C570.158 137.7 568.821 134.881 567.627 132.005Z" fill="#3DBD9B"/>
<path d="M613.674 207.869C610.626 207.447 607.611 206.899 604.655 206.223C604.768 206.428 604.866 206.645 604.989 206.853C606.25 209.17 607.648 211.41 609.105 213.622C612.116 214.201 615.167 214.651 618.218 215C616.596 212.701 615.084 210.314 613.674 207.869Z" fill="#F68522"/>
<path d="M709.514 22.1471C711.653 24.4208 713.685 26.771 715.585 29.1488C718.557 29.1212 721.537 29.2436 724.505 29.4854C722.544 26.9515 720.503 24.5034 718.376 22.1807C715.426 22.0339 712.464 22.0339 709.514 22.1471Z" fill="#3DBD9B"/>
<path d="M606.157 85.0806C608.082 79.0612 610.286 73.1428 612.728 67.3744C608.085 71.8086 603.654 76.4478 599.453 81.2523C597.463 87.2196 595.765 93.2941 594.336 99.4175C598.051 94.4508 602.014 89.6708 606.157 85.0806Z" fill="#F68522"/>
<path d="M751.612 168.12C750.871 172.291 749.95 176.428 748.812 180.523C752.266 177.907 755.599 175.128 758.8 172.218C759.678 167.976 760.342 163.71 760.816 159.426C757.882 162.459 754.806 165.369 751.612 168.12Z" fill="#3DBD9B"/>
<path d="M642.222 53.5788C649.499 48.7285 657.147 44.4106 665.204 40.8027C665.534 40.6497 665.874 40.515 666.214 40.3681C656.715 41.8492 647.314 44.0556 638.131 46.8495C631.368 51.3816 624.911 56.3942 618.781 61.8076C626.413 58.5791 634.272 55.8556 642.222 53.5788Z" fill="#3DBD9B"/>
<path d="M567.756 154.203C566.002 152.226 564.347 150.179 562.835 148.037C562.29 150.69 561.902 153.331 561.645 155.957C563.196 158.05 564.882 160.045 566.672 161.976C566.877 159.384 567.254 156.786 567.756 154.203Z" fill="#40AAA3"/>
<path d="M789.256 93.7201C791.386 98.0044 793.079 102.497 794.294 107.179C794.346 106.365 794.44 105.545 794.483 104.721C794.645 100.636 794.425 96.5936 793.883 92.594C791.965 87.9578 789.587 83.4899 786.723 79.2516C788.084 83.9857 788.935 88.8239 789.256 93.7201Z" fill="#E8402D"/>
<path d="M666.787 208.855C664.685 208.277 662.592 207.662 660.499 207.01C659.734 207.12 658.969 207.258 658.207 207.35C655.615 207.693 653.017 207.962 650.425 208.204C638.82 209.259 626.011 209.571 613.669 207.861C615.083 210.315 616.597 212.702 618.222 215C626.035 215.872 633.887 216.059 641.207 215.94C653.549 215.753 665.854 214.226 677.942 211.603C674.193 210.802 670.469 209.868 666.787 208.855Z" fill="#3DBD9B"/>
<path d="M734.387 59.4814C737.086 65.0601 739.497 70.7857 741.642 76.6153C745.918 80.8567 750.03 85.3061 753.957 89.9331C752.931 86.4109 751.821 82.9039 750.633 79.4428C749.813 77.0651 748.907 74.6048 747.928 72.0924C743.61 67.6888 739.093 63.4719 734.387 59.4814Z" fill="#F57533"/>
<path d="M628.23 29.7796C630.247 29.5532 632.251 29.4063 634.265 29.3022C636.223 26.7868 638.289 24.3754 640.434 22.0833C637.414 22.1323 634.405 22.322 631.416 22.6709C629.313 25.0792 627.333 27.6039 625.445 30.1714C626.379 30.0306 627.3 29.8898 628.23 29.7796Z" fill="#F57533"/>
<path d="M598.66 163.043C597.01 161.47 595.394 159.863 593.834 158.195C592.38 156.677 590.976 155.107 589.602 153.498C589.957 157.908 590.529 162.284 591.275 166.632C594.397 169.833 597.702 172.878 601.129 175.776C600.113 171.559 599.296 167.318 598.66 163.043Z" fill="#F57533"/>
<path d="M788.53 156.51C789.014 159.473 789.304 162.435 789.36 165.37C791.235 162.23 792.842 158.965 794.189 155.608C793.895 152.685 793.414 149.726 792.759 146.776C791.618 150.136 790.189 153.371 788.53 156.51Z" fill="#E8402D"/>
<path d="M794.191 155.607C793.891 152.675 793.414 149.725 792.762 146.775C791.682 141.839 790.133 136.894 788.242 132.001C787.052 134.884 785.705 137.699 784.215 140.438C786.091 145.597 787.633 151.044 788.53 156.51C789.013 159.472 789.304 162.437 789.362 165.366C789.631 177.757 785.626 189.468 773.593 197.17C765.395 202.421 755.908 205.54 746.018 207.269C743.083 207.786 740.133 208.178 737.162 208.465C730.227 209.111 723.229 209.194 716.444 208.924C712.689 208.774 708.99 208.533 705.44 208.202C702.071 207.899 698.72 207.483 695.366 207.012C691.072 208.343 686.736 209.549 682.372 210.589C680.894 210.953 679.419 211.287 677.944 211.605C690.008 214.231 702.322 215.752 714.657 215.941C720.404 216.027 726.488 215.932 732.62 215.473C735.625 215.231 738.624 214.913 741.623 214.475C754.626 212.587 767.304 208.523 777.029 200.237C791.55 187.855 795.844 172.049 794.191 155.607Z" fill="#E80C78"/>
<path d="M561.379 104.311C562.903 101.93 564.62 99.6413 566.468 97.4318C566.508 94.035 566.789 90.6566 567.337 87.3149C565.345 89.4723 563.497 91.697 561.817 93.9952C561.416 97.4042 561.26 100.85 561.379 104.311Z" fill="#E8402D"/>
<path d="M659.406 23.4072C653.166 22.4525 646.798 21.969 640.433 22.0822C637.412 22.1312 634.401 22.3239 631.414 22.6697C624.339 23.4776 617.368 25.1332 610.749 27.8659C594.582 34.5034 581.977 46.5483 573.063 61.4177C572.977 61.5768 572.876 61.7175 572.809 61.8338L572.641 62.1214C567.037 71.9874 563.099 82.7838 561.814 93.9962C561.41 97.4052 561.254 100.851 561.379 104.309L561.391 104.719C561.789 114.129 564.02 123.331 567.622 132C568.727 129.17 569.939 126.348 571.245 123.57C570.092 120.519 569.121 117.407 568.362 114.23C567.037 108.615 566.419 102.993 566.465 97.4327C566.508 94.0298 566.79 90.6575 567.337 87.3158C568.675 79.0931 571.499 71.1122 575.835 63.572C586.678 45.2538 604.561 33.3834 625.45 30.1794C626.368 30.0295 627.304 29.8887 628.229 29.7785C630.242 29.5521 632.247 29.4052 634.263 29.295C644.671 28.7595 655.091 29.8459 665.244 32.1991C669.394 30.4732 673.635 28.9492 677.944 27.6394C671.916 25.7941 665.731 24.3651 659.406 23.4072Z" fill="#E80C78"/>
<path d="M685.017 38.4252C686.92 39.1871 688.805 39.9767 690.669 40.8029C694.467 42.4983 698.163 44.3894 701.783 46.3816C704.008 46.5163 706.224 46.6723 708.448 46.8988C712.421 47.315 716.39 47.8934 720.34 48.6187C715.11 44.9801 709.691 41.6139 704.082 38.6149C697.744 38.162 691.376 38.1161 685.017 38.4252Z" fill="#E8402D"/>
<path d="M757.077 82.0082C754.146 78.6176 751.082 75.3096 747.927 72.0933C743.609 67.6867 739.093 63.4698 734.386 59.4824C729.872 55.6327 725.19 52.0033 720.34 48.6218C715.113 44.9771 709.684 41.6262 704.1 38.612C699.702 36.2465 695.213 34.1105 690.619 32.2009C686.332 33.1893 682.1 34.4042 677.944 35.8241C680.319 36.6289 682.678 37.4981 685.013 38.4253C686.908 39.1873 688.799 39.9738 690.668 40.8031C694.469 42.5045 698.169 44.3896 701.786 46.3787C715.422 53.8547 727.856 63.3044 739.114 74.1283C739.952 74.9453 740.794 75.7778 741.642 76.6162C745.917 80.8576 750.027 85.3071 753.959 89.9341C764.783 102.692 774.076 116.842 780.83 132.088C782.259 129.318 783.526 126.473 784.625 123.575C777.167 107.729 766.628 92.9881 757.077 82.0082Z" fill="#E80C78"/>
<path d="M667.349 201.143C641.839 193.857 617.765 181.353 598.664 163.044C597.011 161.471 595.392 159.865 593.835 158.197C592.381 156.67 590.976 155.109 589.602 153.506C584.005 146.978 578.959 139.784 575.039 132.097C574.513 133.263 573.995 134.441 573.494 135.631C572.863 137.204 572.233 138.808 571.648 140.442C572.374 141.788 573.136 143.125 573.922 144.432C578.812 152.456 584.682 159.877 591.27 166.634C594.398 169.835 597.7 172.873 601.127 175.762C605.16 179.162 609.365 182.342 613.732 185.301C622.508 191.219 631.866 196.229 641.515 200.204C647.74 202.747 654.074 205.027 660.5 207.013C666.33 206.205 672.15 205.14 677.94 203.827C674.397 203.01 670.853 202.141 667.349 201.143Z" fill="#E80C78"/>
<path d="M690.623 32.1992C686.476 30.4794 682.247 28.9523 677.938 27.6395C673.624 28.9523 669.395 30.4794 665.248 32.1992C669.523 33.1907 673.764 34.4055 677.938 35.8315C682.097 34.4055 686.336 33.1907 690.623 32.1992Z" fill="#3DBD9B"/>
<path d="M782.362 135.629C783.011 137.205 783.632 138.806 784.21 140.437C785.707 137.701 787.038 134.877 788.247 132.003C787.142 129.169 785.936 126.348 784.62 123.575C783.525 126.473 782.252 129.316 780.832 132.089C781.365 133.264 781.872 134.439 782.362 135.629Z" fill="#3DBD9B"/>
<path d="M571.241 123.574C569.935 126.347 568.723 129.168 567.621 132.005C568.821 134.876 570.158 137.7 571.642 140.451C572.233 138.808 572.863 137.204 573.494 135.628C573.995 134.441 574.513 133.263 575.039 132.088C573.619 129.318 572.34 126.469 571.241 123.574Z" fill="#40A9A3"/>
<path d="M575.039 132.088C573.616 129.31 572.346 126.473 571.242 123.575C569.938 126.347 568.726 129.169 567.634 132.006C568.821 134.876 570.155 137.704 571.643 140.439C572.236 138.805 572.86 137.205 573.497 135.629C573.99 134.441 574.516 133.263 575.039 132.088Z" fill="#E80C78"/>
</svg>
