<svg width="250" height="163" viewBox="0 0 250 163" fill="none" xmlns="http://www.w3.org/2000/svg">
<g clip-path="url(#clip0_10431_2241)">
<path d="M47.4079 32.6368C37.3549 34.0829 28.3701 38.4211 23.2179 44.394C18.0029 50.3669 13.6675 61.6212 11.9711 73.4413C11.5941 76.019 8.57818 114.937 5.31096 159.891C-1.2235 248.416 -1.09784 245.398 2.29505 248.982C4.61981 251.434 9.2065 252.189 19.071 251.874C28.0559 251.623 30.0037 250.994 32.8311 247.662C33.8992 246.341 34.6532 244.392 35.093 241.5C35.5328 239.174 38.2346 201.262 41.1248 157.376C44.0779 113.428 46.7796 75.9562 47.1566 74.07C48.6646 66.7139 51.4292 64.0103 57.7123 64.0103C61.0423 64.0103 61.7963 64.2618 63.6813 65.8965C65.1264 67.2169 66.2574 69.103 67.137 71.7437C68.0795 74.4472 71.598 98.2131 78.5095 148.889C88.8766 224.902 89.6934 229.554 93.4633 236.533C95.9766 241.186 100.752 246.09 104.522 247.913C109.799 250.491 114.009 251.434 122.491 251.811C134.806 252.314 144.105 250.24 150.451 245.335C155.666 241.374 159.813 232.006 161.761 219.935C162.264 216.665 166.787 183.217 171.814 145.682C176.84 108.147 181.364 75.7676 181.867 73.7556C183.752 66.5253 186.454 64.0103 192.36 64.0103C198.769 64.0103 201.659 67.4684 202.915 76.6478C203.292 79.2256 205.994 116.383 208.884 159.263C211.838 202.142 214.414 238.482 214.602 240.054C215.922 249.485 219.817 252 233.012 252C241.682 251.937 245.389 251.246 247.651 249.045C251.17 245.713 251.233 248.856 244.384 158.005C239.923 98.6532 237.724 72.6239 236.844 68.2857C234.268 55.7111 230.624 48.355 224.027 42.1306C219.503 37.9181 215.168 35.6547 208.068 33.7056C201.533 31.9452 185.888 31.7566 179.417 33.3913C162.703 37.6038 153.467 49.4867 148.943 72.8125C148.566 74.6987 144.42 107.644 139.77 145.996C135.12 184.349 130.974 216.791 130.534 218.112C129.528 221.632 128.209 222.576 124.628 222.324C121.989 222.135 121.423 221.884 120.229 220.123C119.475 218.992 118.722 217.043 118.533 215.722C118.282 214.402 114.449 183.029 109.925 146.059C105.464 109.027 101.192 75.8304 100.5 72.1838C97.4217 55.774 91.3899 44.394 82.782 38.6726C74.2998 33.1398 60.5397 30.7506 47.4079 32.6368Z" fill="white" fill-opacity="0.05"/>
</g>
<defs>
<clipPath id="clip0_10431_2241">
<rect width="250" height="163" fill="white"/>
</clipPath>
</defs>
</svg>
