<svg width="201" height="189" viewBox="0 0 201 189" fill="none" xmlns="http://www.w3.org/2000/svg">
<path d="M41.8496 188.63L40.6396 180.58C40.3896 178.98 40.2396 177.73 40.1096 176.56H40.0596C39.8396 177.64 39.5596 178.84 39.1396 180.16L36.4596 188.63H33.2396L30.6596 180.8C30.2196 179.43 29.7896 177.9 29.5896 176.55H29.5396C29.4396 178.05 29.2596 179.38 29.0596 180.85L28.1096 188.63H24.8096L27.4096 171.75H31.2096L34.0296 180.42C34.4296 181.62 34.7296 182.77 34.9596 183.97H35.0096C35.2596 182.67 35.5296 181.72 35.9596 180.47L38.8596 171.74H42.6296L45.2596 188.62H41.8396L41.8496 188.63Z" fill="#1D355F"/>
<path d="M56.3297 188.91C51.1797 188.91 48.6497 185.64 48.6497 180.41C48.6497 174.83 52.3797 171.48 56.8997 171.48C61.4197 171.48 64.5696 174.18 64.5696 179.96C64.5696 185.74 60.8896 188.91 56.3196 188.91H56.3297ZM56.5997 174.41C54.2697 174.41 52.1296 176.26 52.1296 180.06C52.1296 183.63 53.5297 185.96 56.5497 185.96C58.7497 185.96 61.0997 184.26 61.0997 180.21C61.0997 176.46 59.4997 174.41 56.5997 174.41Z" fill="#1D355F"/>
<path d="M78.7996 188.63L73.8495 180.11C73.0995 178.83 72.5195 177.58 72.0195 176.48C72.1195 177.93 72.1696 180.58 72.1696 182.6V188.63H69.0195V171.75H73.2495L77.9495 179.8C78.7195 181.1 79.3995 182.5 80.0295 183.77C79.8995 182.07 79.8495 179.07 79.8495 177V171.75H82.9995V188.63H78.7996Z" fill="#1D355F"/>
<path d="M94.5096 174.53V188.63H91.2596V174.53H86.8896V171.76H98.8896V174.53H94.5096Z" fill="#1D355F"/>
<path d="M102.63 188.63V171.75H111.81V174.47H105.88V178.62H111.51V181.26H105.88V185.84H111.81V188.61H102.63V188.63Z" fill="#1D355F"/>
<path d="M124.91 188.63L120.21 181.66H120.09V188.63H116.84V171.75C118.16 171.67 119.74 171.65 121.69 171.65C125.41 171.65 127.81 172.95 127.81 176.4C127.81 178.89 126.06 180.7 123.51 181.1C123.98 181.73 124.47 182.38 124.89 182.95L128.94 188.63H124.91ZM121.36 174.31C120.88 174.31 120.41 174.33 120.09 174.38V179.26C120.31 179.29 120.76 179.31 121.26 179.31C123.21 179.31 124.41 178.31 124.41 176.74C124.41 175.17 123.41 174.31 121.36 174.31Z" fill="#1D355F"/>
<path d="M141.14 188.63L136.44 181.66H136.32V188.63H133.07V171.75C134.4 171.67 135.97 171.65 137.92 171.65C141.64 171.65 144.04 172.95 144.04 176.4C144.04 178.89 142.29 180.7 139.75 181.1C140.23 181.73 140.7 182.38 141.13 182.95L145.18 188.63H141.15H141.14ZM137.59 174.31C137.11 174.31 136.64 174.33 136.32 174.38V179.26C136.55 179.29 137 179.31 137.49 179.31C139.44 179.31 140.64 178.31 140.64 176.74C140.64 175.17 139.64 174.31 137.59 174.31Z" fill="#1D355F"/>
<path d="M149.29 188.63V171.75H158.47V174.47H152.54V178.62H158.17V181.26H152.54V185.84H158.47V188.61H149.29V188.63Z" fill="#1D355F"/>
<path d="M170.12 182.66V188.63H166.87V182.68L161.6 171.75H165.14L167.37 176.6C167.82 177.6 168.2 178.52 168.52 179.39H168.57C168.92 178.42 169.42 177.34 169.92 176.27L172.05 171.74H175.5L170.13 182.64L170.12 182.66Z" fill="#1D355F"/>
<path d="M9.52002 129.16H0V120.44H29.52V129.16H20V154.43H9.53003V129.16H9.52002Z" fill="#1D355F"/>
<path d="M35.03 139.3C35.46 136.64 37.08 135.16 39.88 135.16C42.31 135.16 44.03 137.02 44.03 139.3H35.03ZM53.08 144.2C53.08 134.58 48.84 129.11 39.04 129.11C31.23 129.11 26 134.96 26 142.15C26 150.38 31.95 155.04 39.85 155.04C45.47 155.04 50.66 152.56 52.56 147.24H43.75C42.99 148.43 41.32 149.01 39.8 149.01C36.85 149.01 35.2301 147.01 34.9901 144.2H53.08Z" fill="#1D355F"/>
<path d="M57.6899 120.45H67.11V154.44H57.6899V120.45Z" fill="#1D355F"/>
<path d="M80.7302 139.3C81.1602 136.64 82.7701 135.16 85.5901 135.16C88.0101 135.16 89.7302 137.02 89.7302 139.3H80.7402H80.7302ZM98.7701 144.2C98.7701 134.58 94.5402 129.11 84.7302 129.11C76.9202 129.11 71.6802 134.96 71.6802 142.15C71.6802 150.38 77.6302 155.04 85.5302 155.04C91.1502 155.04 96.3302 152.56 98.2402 147.24H89.4401C88.6801 148.43 87.0202 149.01 85.4902 149.01C82.5402 149.01 80.9102 147.01 80.6802 144.2H98.7701Z" fill="#1D355F"/>
<path d="M119.62 154.43H108.48L100.39 129.73H110.34L114.19 144.77H114.28L118.19 129.73H127.81L119.62 154.43Z" fill="#1D355F"/>
<path d="M131.29 129.73H140.7V154.43H131.29V129.73ZM140.7 127.06H131.29V120.45H140.7V127.06Z" fill="#1D355F"/>
<path d="M160.61 136.91C160.57 136.1 160.14 135.48 159.51 135.05C158.95 134.57 158.18 134.34 157.43 134.34C156.1 134.34 154.57 134.62 154.57 136.24C154.57 136.96 155.14 137.29 155.67 137.53C157.24 138.2 160.81 138.38 163.95 139.43C167.09 140.43 169.86 142.29 169.86 146.33C169.86 153.18 163.28 155.04 157.29 155.04C151.3 155.04 145.1 152.71 144.96 146.33H153.96C154 147.19 154.39 147.9 155.11 148.52C155.59 148.95 156.5 149.23 157.63 149.23C158.86 149.23 160.82 148.76 160.82 147.33C160.82 145.9 160.01 145.47 155.64 144.71C148.45 143.47 145.54 141.19 145.54 136.95C145.54 130.71 152.25 129.09 157.21 129.09C162.54 129.09 168.96 130.56 169.19 136.89H160.63L160.61 136.91Z" fill="#1D355F"/>
<path d="M190.13 145.63C189.99 148.2 188.32 149.48 186.17 149.48C184.45 149.48 183.22 148.34 183.22 147.2C183.22 145.53 184.3 145.01 186.4 144.54C187.69 144.25 188.98 143.92 190.12 143.34V145.63H190.13ZM199.17 138.77C199.17 134.01 199.27 129.11 187.46 129.11C181.61 129.11 175.03 130.25 174.76 137.2H183.52C183.57 136.15 184.13 134.67 187.04 134.67C188.56 134.67 190.14 135.29 190.14 136.96C190.14 138.53 188.85 138.9 187.57 139.14C182.77 140.05 173.62 139.76 173.62 147.56C173.62 152.76 177.56 155.04 182.34 155.04C185.37 155.04 188.28 154.38 190.28 152.09H190.38C190.33 152.76 190.48 153.76 190.71 154.43H200.33C199.28 152.86 199.18 150.77 199.18 148.9V138.77H199.17Z" fill="#1D355F"/>
<path d="M100.07 0C89.6098 0 79.9098 1.51999 71.0298 4.07999H128.97C120.13 1.52999 110.48 0 100.07 0Z" fill="#1D355F"/>
<path d="M155.31 15.6502C152.6 14.0202 149.76 12.4502 146.78 10.9902H119.9C122.62 12.3002 125.19 13.8602 127.58 15.6502H155.3H155.31Z" fill="#1D355F"/>
<path d="M53.1799 10.9902C50.2099 12.4502 47.3699 14.0202 44.6499 15.6502H72.5299C74.9199 13.8602 77.4899 12.3002 80.2099 10.9902H53.1699H53.1799Z" fill="#1D355F"/>
<path d="M35.7898 21.6099C32.7298 23.9199 29.9398 26.3499 27.5098 28.8899H60.6198C62.1798 26.2899 63.9798 23.8499 66.0098 21.6099H35.7898Z" fill="#1D355F"/>
<path d="M172.55 28.8899C170.09 26.3399 167.29 23.9199 164.21 21.6099H134.12C136.15 23.8499 137.95 26.2899 139.51 28.8899H172.55Z" fill="#1D355F"/>
<path d="M23.2798 33.9199C20.8898 37.2199 19.0898 40.7099 18.0098 44.4099H54.8298C55.4798 40.7499 56.5598 37.2299 58.0198 33.9199H23.2798Z" fill="#1D355F"/>
<path d="M182.12 44.4099C181.04 40.7099 179.22 37.2199 176.81 33.9199H142.11C143.56 37.2299 144.65 40.7499 145.29 44.4099H182.12Z" fill="#1D355F"/>
<path d="M54.2598 48.9702H17.0798C16.9398 50.1102 16.8599 51.2602 16.8599 52.4302C16.8599 55.0602 17.2198 57.5902 17.8998 60.0402H54.7598C54.3398 57.5602 54.1298 55.0202 54.1298 52.4302C54.1298 51.2702 54.1798 50.1102 54.2598 48.9702Z" fill="#1D355F"/>
<path d="M145.36 60.0402H182.24C182.91 57.6002 183.28 55.0602 183.28 52.4302C183.28 51.2502 183.21 50.1002 183.06 48.9702H145.86C145.94 50.1102 145.99 51.2702 145.99 52.4302C145.99 55.0202 145.77 57.5702 145.35 60.0402H145.36Z" fill="#1D355F"/>
<path d="M19.1997 63.7798C20.9497 67.9298 23.6297 71.8098 27.0197 75.4298H60.2997C58.2097 71.8298 56.5997 67.9098 55.5497 63.7798H19.1997Z" fill="#1D355F"/>
<path d="M173.13 75.44C176.51 71.81 179.19 67.94 180.94 63.79H144.58C143.53 67.93 141.91 71.84 139.83 75.44H173.14H173.13Z" fill="#1D355F"/>
<path d="M62.3297 78.6201H30.2397C33.8797 81.9601 38.0997 85.0801 42.7297 88.0001C45.2797 89.6101 47.9497 91.1501 50.7497 92.6101H77.7997C71.6297 89.1901 66.3397 84.3801 62.3297 78.6201Z" fill="#1D355F"/>
<path d="M122.32 92.6101H149.4C152.19 91.1501 154.86 89.6001 157.41 88.0001C162.04 85.0801 166.27 81.9601 169.91 78.6201H137.79C133.78 84.3801 128.49 89.1801 122.32 92.6101Z" fill="#1D355F"/>
<path d="M81.2998 94.3701H54.2598C67.2398 100.59 82.5898 104.86 100.07 104.86C117.55 104.86 132.91 100.59 145.89 94.3701H118.82C113.09 96.9401 106.74 98.3601 100.06 98.3601C93.3798 98.3601 87.0298 96.9301 81.2998 94.3701Z" fill="#1D355F"/>
</svg>
